<svg width="928" height="606" viewBox="0 0 928 606" fill="none" xmlns="http://www.w3.org/2000/svg">
<g filter="url(#filter0_d_22_9)">
<path d="M924 336C924 498 626.496 598 410 598C193.504 598 4 445.852 4 252C4 58.1481 347.69 0 564.186 0C780.682 0 924 142.148 924 336Z" fill="#6FFFBB" fill-opacity="0.29"/>
<g clip-path="url(#clip0_22_9)" filter="url(#filter1_d_22_9)">
<path d="M726.128 37.4881H173.195C173.18 36.558 172.8 35.6713 172.137 35.0188C171.474 34.3664 170.581 34.0005 169.65 34H147.873C146.943 34.0004 146.05 34.3662 145.387 35.0187C144.724 35.6711 144.343 36.558 144.328 37.4881H138.995C138.979 36.558 138.599 35.6713 137.936 35.0188C137.273 34.3664 136.38 34.0005 135.45 34H113.672C112.742 34.0005 111.849 34.3664 111.186 35.0188C110.523 35.6713 110.143 36.558 110.127 37.4881H90.7227C79.4616 37.5007 68.6654 41.9798 60.7025 49.9425C52.7396 57.9052 48.2604 68.7014 48.2476 79.9625V80.3807C48.181 80.3769 48.1172 80.3607 48.0492 80.3607H47.5512C47.0849 80.3607 46.6231 80.4525 46.1922 80.631C45.7614 80.8095 45.3699 81.071 45.0401 81.4008C44.7103 81.7306 44.4488 82.122 44.2703 82.5529C44.0918 82.9838 44 83.4456 44 83.9119V125.45C44 125.917 44.0918 126.378 44.2703 126.809C44.4488 127.24 44.7103 127.632 45.0401 127.961C45.3699 128.291 45.7614 128.553 46.1922 128.731C46.6231 128.91 47.0849 129.001 47.5512 129.001H48.0492C48.1172 129.001 48.181 128.985 48.2476 128.981V518.526C48.2604 529.787 52.7396 540.583 60.7025 548.546C68.6654 556.508 79.4616 560.987 90.7227 561H726.128C737.389 560.987 748.186 556.508 756.148 548.545C764.111 540.583 768.59 529.787 768.603 518.526V79.9626C768.59 68.7016 764.111 57.9054 756.148 49.9427C748.186 41.98 737.389 37.5009 726.128 37.4881ZM755.818 518.526C755.809 526.397 752.678 533.944 747.112 539.51C741.546 545.076 734 548.207 726.128 548.216H90.7227C82.8511 548.207 75.3043 545.076 69.7382 539.51C64.172 533.944 61.041 526.397 61.032 518.526V79.9626C61.041 72.0909 64.172 64.5442 69.7382 58.9782C75.3043 53.4122 82.8511 50.2813 90.7227 50.2725H726.128C734 50.2815 741.546 53.4124 747.112 58.9784C752.678 64.5445 755.809 72.091 755.818 79.9625V518.526Z" fill="#CCCCCC"/>
<path d="M726.128 555.318H90.7225C80.9679 555.307 71.616 551.427 64.7184 544.53C57.8208 537.632 53.9409 528.28 53.9299 518.526V79.9625C53.9409 70.2079 57.8208 60.856 64.7184 53.9584C71.616 47.0608 80.9679 43.181 90.7225 43.17H726.128C735.883 43.1809 745.235 47.0608 752.132 53.9583C759.03 60.8559 762.91 70.2078 762.921 79.9625V518.526C762.91 528.28 759.03 537.632 752.132 544.53C745.235 551.427 735.883 555.307 726.128 555.318V555.318Z" fill="#E6E6E6"/>
<path d="M726.323 525.678H90.5282C88.3812 525.675 86.3228 524.821 84.8047 523.303C83.2865 521.785 82.4326 519.726 82.4302 517.579V80.9079C82.4326 78.761 83.2866 76.7027 84.8047 75.1846C86.3229 73.6665 88.3812 72.8125 90.5282 72.8102H726.323C728.47 72.8125 730.528 73.6664 732.046 75.1845C733.564 76.7026 734.418 78.7609 734.421 80.9079V517.579C734.418 519.727 733.564 521.785 732.046 523.303C730.528 524.821 728.47 525.675 726.323 525.678V525.678Z" fill="white"/>
<path d="M68.3203 301.524C69.9992 301.524 71.3603 300.163 71.3603 298.484C71.3603 296.805 69.9992 295.444 68.3203 295.444C66.6413 295.444 65.2802 296.805 65.2802 298.484C65.2802 300.163 66.6413 301.524 68.3203 301.524Z" fill="white"/>
<path d="M321.46 130.592H186.394C175.799 130.604 165.641 134.818 158.149 142.31C150.657 149.802 146.443 159.96 146.431 170.555V182.763C146.154 182.687 145.862 182.676 145.58 182.732C145.298 182.787 145.033 182.907 144.805 183.083C144.578 183.259 144.394 183.485 144.269 183.744C144.143 184.003 144.08 184.287 144.084 184.574V193.963C144.08 194.25 144.143 194.535 144.269 194.793C144.394 195.052 144.578 195.278 144.805 195.454C145.033 195.63 145.298 195.75 145.58 195.806C145.862 195.861 146.154 195.85 146.431 195.774V209.989C146.154 209.913 145.862 209.902 145.58 209.958C145.298 210.013 145.033 210.133 144.805 210.309C144.577 210.485 144.394 210.711 144.269 210.97C144.143 211.229 144.08 211.513 144.084 211.801V235.271C144.08 235.559 144.143 235.843 144.269 236.102C144.394 236.361 144.577 236.587 144.805 236.763C145.033 236.938 145.298 237.059 145.58 237.114C145.862 237.17 146.154 237.159 146.431 237.083V245.665C146.154 245.588 145.862 245.578 145.58 245.633C145.298 245.689 145.033 245.809 144.805 245.985C144.577 246.16 144.394 246.387 144.269 246.645C144.143 246.904 144.08 247.189 144.084 247.476V270.947C144.08 271.234 144.143 271.519 144.269 271.778C144.394 272.036 144.577 272.263 144.805 272.438C145.033 272.614 145.298 272.734 145.58 272.79C145.862 272.845 146.154 272.834 146.431 272.758V520.613C146.443 531.208 150.657 541.366 158.149 548.858C165.641 556.35 175.799 560.564 186.394 560.576H321.46C332.055 560.564 342.213 556.35 349.705 548.858C357.197 541.366 361.411 531.208 361.423 520.613V170.555C361.411 159.96 357.197 149.802 349.705 142.31C342.213 134.818 332.055 130.604 321.46 130.592V130.592ZM352.974 520.613C352.964 528.968 349.641 536.978 343.733 542.886C337.825 548.794 329.815 552.117 321.46 552.127H186.394C178.039 552.117 170.029 548.794 164.121 542.886C158.213 536.978 154.89 528.968 154.88 520.613V170.555C154.89 162.2 158.213 154.19 164.121 148.282C170.029 142.374 178.039 139.051 186.394 139.041H321.46C329.815 139.051 337.825 142.374 343.733 148.282C349.641 154.19 352.964 162.2 352.974 170.555V520.613Z" fill="#CCCCCC"/>
<path d="M321.46 556.821H186.394C176.794 556.81 167.591 552.992 160.803 546.204C154.015 539.416 150.197 530.213 150.186 520.613V170.555C150.197 160.955 154.015 151.752 160.803 144.964C167.591 138.176 176.794 134.358 186.394 134.347H321.46C331.059 134.358 340.263 138.176 347.051 144.964C353.839 151.752 357.657 160.955 357.668 170.555V520.613C357.657 530.213 353.839 539.416 347.051 546.204C340.263 552.992 331.059 556.81 321.46 556.821V556.821Z" fill="#E6E6E6"/>
<path d="M324.798 551.188H183.056C176.582 551.181 170.375 548.605 165.796 544.027C161.218 539.449 158.643 533.242 158.635 526.767V164.401C158.643 157.926 161.218 151.719 165.796 147.141C170.374 142.562 176.582 139.987 183.056 139.98H201.541C202.611 139.981 203.637 140.407 204.394 141.163C205.15 141.92 205.576 142.946 205.577 144.016C205.581 147.178 206.838 150.208 209.073 152.444C211.309 154.679 214.34 155.937 217.501 155.94H288.475C291.636 155.937 294.667 154.679 296.903 152.444C299.138 150.208 300.395 147.178 300.399 144.016C300.4 142.946 300.826 141.92 301.583 141.163C302.339 140.407 303.365 139.981 304.435 139.98H324.797C331.272 139.987 337.479 142.562 342.057 147.141C346.636 151.719 349.211 157.926 349.218 164.401V526.767C349.211 533.242 346.636 539.449 342.057 544.027C337.479 548.605 331.272 551.181 324.798 551.188V551.188Z" fill="white"/>
<path d="M260.029 148.195H243.13C242.632 148.195 242.155 147.997 241.803 147.645C241.45 147.293 241.253 146.815 241.253 146.317C241.253 145.819 241.45 145.341 241.803 144.989C242.155 144.637 242.632 144.439 243.13 144.439H260.029C260.527 144.441 261.003 144.639 261.354 144.991C261.705 145.343 261.903 145.82 261.903 146.317C261.903 146.814 261.705 147.291 261.354 147.643C261.003 147.995 260.527 148.194 260.029 148.195V148.195Z" fill="white"/>
<path d="M271.765 147.725C272.283 147.725 272.704 147.305 272.704 146.786C272.704 146.268 272.283 145.848 271.765 145.848C271.246 145.848 270.826 146.268 270.826 146.786C270.826 147.305 271.246 147.725 271.765 147.725Z" fill="white"/>
<path d="M272.717 236.434L272.913 240.802C295.242 239.802 321.099 241.748 348.619 246.34V241.911C321.057 237.354 295.142 235.43 272.717 236.434Z" fill="#CCCCCC"/>
<path d="M244.951 321.985C244.778 323.657 244.637 325.338 244.527 327.03C244.297 330.358 244.182 333.711 244.182 337.091C244.199 368.558 254.373 399.18 273.189 424.401C292.005 449.623 318.46 468.098 348.619 477.079V197.077C320.923 205.31 296.291 221.572 277.838 243.806C259.385 266.039 247.94 293.246 244.951 321.985V321.985Z" fill="#6C63FF"/>
<path d="M172.076 237.337C173.666 237.337 174.954 236.048 174.954 234.458C174.954 232.868 173.666 231.579 172.076 231.579C170.486 231.579 169.197 232.868 169.197 234.458C169.197 236.048 170.486 237.337 172.076 237.337Z" fill="#CCCCCC"/>
<path d="M165.94 352.818C169.081 352.818 171.627 350.272 171.627 347.131C171.627 343.99 169.081 341.444 165.94 341.444C162.799 341.444 160.253 343.99 160.253 347.131C160.253 350.272 162.799 352.818 165.94 352.818Z" fill="#CCCCCC"/>
<path d="M273.035 202.31C275.31 202.31 277.154 200.466 277.154 198.191C277.154 195.916 275.31 194.072 273.035 194.072C270.76 194.072 268.916 195.916 268.916 198.191C268.916 200.466 270.76 202.31 273.035 202.31Z" fill="#CCCCCC"/>
<path d="M179.327 430.739C181.142 430.739 182.613 429.267 182.613 427.453C182.613 425.638 181.142 424.166 179.327 424.166C177.512 424.166 176.041 425.638 176.041 427.453C176.041 429.267 177.512 430.739 179.327 430.739Z" fill="#CCCCCC"/>
<path d="M245.704 476.75C247.669 476.75 249.262 475.157 249.262 473.191C249.262 471.226 247.669 469.632 245.704 469.632C243.738 469.632 242.145 471.226 242.145 473.191C242.145 475.157 243.738 476.75 245.704 476.75Z" fill="#CCCCCC"/>
<path d="M349.157 114.869H342.134V107.846H338.366V114.869H331.34V118.639H338.366V125.662H342.134V118.639H349.157V114.869Z" fill="#CCCCCC"/>
<path opacity="0.1" d="M298.136 324.819C304.913 324.819 310.407 319.325 310.407 312.548C310.407 305.771 304.913 300.277 298.136 300.277C291.359 300.277 285.865 305.771 285.865 312.548C285.865 319.325 291.359 324.819 298.136 324.819Z" fill="black"/>
<path opacity="0.1" d="M304.271 411.277C311.049 411.277 316.543 405.783 316.543 399.005C316.543 392.228 311.049 386.734 304.271 386.734C297.494 386.734 292 392.228 292 399.005C292 405.783 297.494 411.277 304.271 411.277Z" fill="black"/>
<path d="M250.134 322.072C235.076 311.961 223.86 301.986 216.798 292.423C209.754 282.883 207.242 274.266 209.332 266.809C211.422 259.352 218.047 253.295 229.024 248.807C240.027 244.307 254.793 241.614 272.912 240.802L272.717 236.435C233.917 238.173 209.911 248.541 205.122 265.629C200.333 282.716 215.452 304.05 247.697 325.702C273.991 343.359 309.21 359.664 348.619 372.578V367.977C310.14 355.261 275.805 339.31 250.134 322.072Z" fill="#CCCCCC"/>
<path opacity="0.1" d="M250.132 325.57C248.353 324.374 246.626 323.179 244.951 321.985C244.778 323.657 244.637 325.338 244.527 327.031C245.565 327.755 246.622 328.478 247.697 329.199C273.992 346.856 309.21 363.162 348.619 376.076V371.474C310.141 358.758 275.807 342.808 250.132 325.57Z" fill="black"/>
<path d="M412.977 255.149C395.78 250.329 378.735 246.403 362.197 243.381V247.825C378.352 250.803 394.997 254.65 411.797 259.359C465.282 274.35 513.679 296.197 544.579 319.297L547.198 315.796C515.882 292.385 466.961 270.28 412.977 255.149Z" fill="#CCCCCC"/>
<path d="M541.372 337.091C541.358 315.099 536.382 293.395 526.812 273.594C517.243 253.794 503.328 236.409 486.105 222.735C468.882 209.061 448.795 199.45 427.34 194.62C405.886 189.79 383.618 189.864 362.197 194.837V479.334C394.405 486.832 428.204 483.181 458.068 468.979C487.932 454.776 512.095 430.863 526.607 401.148C527.36 399.611 528.085 398.061 528.78 396.496C537.109 377.8 541.399 357.558 541.372 337.091L541.372 337.091Z" fill="#6C63FF"/>
<path d="M399.204 164.724C400.129 164.724 400.878 163.975 400.878 163.05C400.878 162.126 400.129 161.377 399.204 161.377C398.28 161.377 397.531 162.126 397.531 163.05C397.531 163.975 398.28 164.724 399.204 164.724Z" fill="#F2F2F2"/>
<path d="M512.435 176.881C514.529 176.881 516.226 175.184 516.226 173.091C516.226 170.997 514.529 169.3 512.435 169.3C510.342 169.3 508.645 170.997 508.645 173.091C508.645 175.184 510.342 176.881 512.435 176.881Z" fill="#CCCCCC"/>
<path d="M646.862 336.551C650.261 336.551 653.016 333.796 653.016 330.397C653.016 326.999 650.261 324.244 646.862 324.244C643.464 324.244 640.709 326.999 640.709 330.397C640.709 333.796 643.464 336.551 646.862 336.551Z" fill="#CCCCCC"/>
<path d="M598.742 234.751C600.201 234.751 601.383 233.569 601.383 232.111C601.383 230.653 600.201 229.47 598.742 229.47C597.284 229.47 596.102 230.653 596.102 232.111C596.102 233.569 597.284 234.751 598.742 234.751Z" fill="#CCCCCC"/>
<path d="M589.501 320.56C590.96 320.56 592.142 319.377 592.142 317.919C592.142 316.461 590.96 315.279 589.501 315.279C588.043 315.279 586.861 316.461 586.861 317.919C586.861 319.377 588.043 320.56 589.501 320.56Z" fill="#CCCCCC"/>
<path d="M517.192 494.867H512.78V490.458H510.415V494.867H506.006V497.233H510.415V501.643H512.78V497.233H517.192V494.867Z" fill="#CCCCCC"/>
<path d="M618.971 472.296H615.675V469H613.904V472.296H610.608V474.066H613.904V477.362H615.675V474.066H618.971V472.296Z" fill="#CCCCCC"/>
<path opacity="0.1" d="M397.531 235.016C404.308 235.016 409.802 229.521 409.802 222.744C409.802 215.967 404.308 210.473 397.531 210.473C390.754 210.473 385.26 215.967 385.26 222.744C385.26 229.521 390.754 235.016 397.531 235.016Z" fill="black"/>
<path opacity="0.1" d="M397.531 343.784C404.308 343.784 409.802 338.29 409.802 331.513C409.802 324.736 404.308 319.242 397.531 319.242C390.754 319.242 385.26 324.736 385.26 331.513C385.26 338.29 390.754 343.784 397.531 343.784Z" fill="black"/>
<path opacity="0.1" d="M463.35 277.965C470.127 277.965 475.621 272.471 475.621 265.694C475.621 258.917 470.127 253.423 463.35 253.423C456.573 253.423 451.079 258.917 451.079 265.694C451.079 272.471 456.573 277.965 463.35 277.965Z" fill="black"/>
<path opacity="0.1" d="M504.069 361.076C510.846 361.076 516.34 355.582 516.34 348.804C516.34 342.027 510.846 336.533 504.069 336.533C497.291 336.533 491.797 342.027 491.797 348.804C491.797 355.582 497.291 361.076 504.069 361.076Z" fill="black"/>
<path d="M574.763 343.237C569 334.395 559.726 325.162 547.198 315.796L544.579 319.298C568.926 337.499 580.267 354.897 576.515 368.287C574.425 375.744 567.799 381.801 556.823 386.289C545.819 390.788 531.053 393.481 512.934 394.293C509.084 394.466 505.134 394.552 501.083 394.552C465.631 394.551 422.883 387.987 379.178 375.737C373.448 374.131 367.787 372.45 362.197 370.696V375.275C367.403 376.892 372.67 378.45 377.998 379.947C422.085 392.304 465.245 398.924 501.105 398.923C505.21 398.923 509.226 398.836 513.13 398.661C551.929 396.922 575.935 386.554 580.725 369.467C582.946 361.541 580.94 352.716 574.763 343.237Z" fill="#CCCCCC"/>
<path opacity="0.1" d="M512.935 397.79C509.086 397.962 505.135 398.048 501.082 398.048C465.633 398.048 422.881 391.485 379.177 379.234C373.447 377.628 367.787 375.948 362.197 374.194V378.773C367.403 380.39 372.669 381.948 377.997 383.445C422.086 395.8 465.243 402.42 501.104 402.42C505.209 402.42 509.228 402.332 513.132 402.157C517.848 401.948 522.34 401.611 526.607 401.148C527.361 399.611 528.085 398.061 528.78 396.496C523.822 397.105 518.54 397.536 512.935 397.79Z" fill="black"/>
<path d="M463.301 230.5C472.138 230.5 479.301 223.337 479.301 214.5C479.301 205.663 472.138 198.5 463.301 198.5C454.465 198.5 447.301 205.663 447.301 214.5C447.301 223.337 454.465 230.5 463.301 230.5Z" fill="white"/>
<path d="M463.35 190.95C457.285 190.95 451.468 193.36 447.179 197.649C442.89 201.937 440.481 207.754 440.481 213.82C440.481 226.45 463.35 267.925 463.35 267.925C463.35 267.925 486.219 226.45 486.219 213.82C486.219 207.754 483.81 201.937 479.521 197.649C475.232 193.36 469.415 190.95 463.35 190.95ZM463.35 224.975C461.254 224.975 459.205 224.354 457.462 223.189C455.719 222.025 454.361 220.37 453.559 218.433C452.757 216.497 452.547 214.366 452.956 212.31C453.365 210.254 454.374 208.366 455.856 206.883C457.338 205.401 459.227 204.392 461.282 203.983C463.338 203.574 465.469 203.784 467.406 204.586C469.342 205.388 470.997 206.747 472.162 208.489C473.326 210.232 473.948 212.281 473.948 214.377C473.948 217.188 472.831 219.884 470.844 221.871C468.856 223.859 466.161 224.975 463.35 224.975V224.975Z" fill="#3F3D56"/>
<path d="M397.301 288.5C406.138 288.5 413.301 281.337 413.301 272.5C413.301 263.663 406.138 256.5 397.301 256.5C388.465 256.5 381.301 263.663 381.301 272.5C381.301 281.337 388.465 288.5 397.301 288.5Z" fill="white"/>
<path d="M397.35 248.95C391.285 248.95 385.468 251.36 381.179 255.649C376.89 259.937 374.481 265.754 374.481 271.82C374.481 284.45 397.35 325.925 397.35 325.925C397.35 325.925 420.219 284.45 420.219 271.82C420.219 265.754 417.81 259.937 413.521 255.649C409.232 251.36 403.415 248.95 397.35 248.95V248.95ZM397.35 282.975C395.254 282.975 393.205 282.354 391.462 281.189C389.719 280.025 388.361 278.37 387.559 276.433C386.757 274.497 386.547 272.366 386.956 270.31C387.365 268.254 388.374 266.366 389.856 264.883C391.338 263.401 393.227 262.392 395.282 261.983C397.338 261.574 399.469 261.784 401.406 262.586C403.342 263.388 404.997 264.747 406.162 266.489C407.326 268.232 407.948 270.281 407.948 272.377C407.948 275.188 406.831 277.884 404.844 279.871C402.856 281.859 400.161 282.975 397.35 282.975V282.975Z" fill="#3F3D56"/>
<path d="M397.301 185.5C406.138 185.5 413.301 178.337 413.301 169.5C413.301 160.663 406.138 153.5 397.301 153.5C388.465 153.5 381.301 160.663 381.301 169.5C381.301 178.337 388.465 185.5 397.301 185.5Z" fill="white"/>
<path d="M397.35 145.95C391.285 145.95 385.468 148.36 381.179 152.649C376.89 156.937 374.481 162.754 374.481 168.82C374.481 181.45 397.35 222.925 397.35 222.925C397.35 222.925 420.219 181.45 420.219 168.82C420.219 162.754 417.81 156.937 413.521 152.649C409.232 148.36 403.415 145.95 397.35 145.95ZM397.35 179.975C395.254 179.975 393.205 179.354 391.462 178.189C389.719 177.025 388.361 175.37 387.559 173.433C386.757 171.497 386.547 169.366 386.956 167.31C387.365 165.254 388.374 163.366 389.856 161.883C391.338 160.401 393.227 159.392 395.282 158.983C397.338 158.574 399.469 158.784 401.406 159.586C403.342 160.388 404.997 161.747 406.162 163.489C407.326 165.232 407.948 167.281 407.948 169.377C407.948 170.769 407.674 172.147 407.141 173.433C406.609 174.719 405.828 175.887 404.844 176.871C403.86 177.855 402.691 178.636 401.406 179.169C400.12 179.701 398.742 179.975 397.35 179.975V179.975Z" fill="#CCCCCC"/>
<path d="M504.301 309.5C513.138 309.5 520.301 302.337 520.301 293.5C520.301 284.663 513.138 277.5 504.301 277.5C495.465 277.5 488.301 284.663 488.301 293.5C488.301 302.337 495.465 309.5 504.301 309.5Z" fill="white"/>
<path d="M504.35 269.95C498.285 269.95 492.468 272.36 488.179 276.649C483.89 280.937 481.481 286.754 481.481 292.82C481.481 305.45 504.35 346.925 504.35 346.925C504.35 346.925 527.219 305.45 527.219 292.82C527.219 286.754 524.81 280.937 520.521 276.649C516.232 272.36 510.415 269.95 504.35 269.95V269.95ZM504.35 303.975C502.254 303.975 500.205 303.354 498.462 302.189C496.719 301.025 495.361 299.37 494.559 297.433C493.757 295.497 493.547 293.366 493.956 291.31C494.365 289.254 495.374 287.366 496.856 285.883C498.338 284.401 500.227 283.392 502.282 282.983C504.338 282.574 506.469 282.784 508.406 283.586C510.342 284.388 511.997 285.747 513.162 287.489C514.326 289.232 514.948 291.281 514.948 293.377C514.948 296.188 513.831 298.884 511.844 300.871C509.856 302.859 507.161 303.975 504.35 303.975V303.975Z" fill="#CCCCCC"/>
<path d="M298.301 273.5C307.138 273.5 314.301 266.337 314.301 257.5C314.301 248.663 307.138 241.5 298.301 241.5C289.465 241.5 282.301 248.663 282.301 257.5C282.301 266.337 289.465 273.5 298.301 273.5Z" fill="white"/>
<path d="M298.35 233.95C292.285 233.95 286.468 236.36 282.179 240.649C277.89 244.937 275.481 250.754 275.481 256.82C275.481 269.45 298.35 310.925 298.35 310.925C298.35 310.925 321.219 269.45 321.219 256.82C321.219 250.754 318.81 244.937 314.521 240.649C310.232 236.36 304.415 233.95 298.35 233.95V233.95ZM298.35 267.975C296.254 267.975 294.205 267.354 292.462 266.189C290.719 265.025 289.361 263.37 288.559 261.433C287.757 259.497 287.547 257.366 287.956 255.31C288.365 253.254 289.374 251.366 290.856 249.883C292.338 248.401 294.227 247.392 296.282 246.983C298.338 246.574 300.469 246.784 302.406 247.586C304.342 248.388 305.997 249.747 307.162 251.489C308.326 253.232 308.948 255.281 308.948 257.377C308.948 260.188 307.831 262.884 305.844 264.871C303.856 266.859 301.161 267.975 298.35 267.975V267.975Z" fill="#CCCCCC"/>
<path d="M304.35 320.95C298.285 320.95 292.468 323.36 288.179 327.649C283.89 331.937 281.481 337.754 281.481 343.82C281.481 356.45 304.35 397.925 304.35 397.925C304.35 397.925 327.219 356.45 327.219 343.82C327.219 337.754 324.81 331.937 320.521 327.649C316.232 323.36 310.415 320.95 304.35 320.95ZM304.35 354.975C302.254 354.975 300.205 354.354 298.462 353.189C296.719 352.025 295.361 350.37 294.559 348.433C293.757 346.497 293.547 344.366 293.956 342.31C294.365 340.254 295.374 338.366 296.856 336.883C298.338 335.401 300.227 334.392 302.282 333.983C304.338 333.574 306.469 333.784 308.406 334.586C310.342 335.388 311.997 336.747 313.162 338.489C314.326 340.232 314.948 342.281 314.948 344.377C314.948 347.188 313.831 349.884 311.844 351.871C309.856 353.859 307.161 354.975 304.35 354.975V354.975Z" fill="#3F3D56"/>
</g>
</g>
<defs>
<filter id="filter0_d_22_9" x="0" y="0" width="928" height="606" filterUnits="userSpaceOnUse" color-interpolation-filters="sRGB">
<feFlood flood-opacity="0" result="BackgroundImageFix"/>
<feColorMatrix in="SourceAlpha" type="matrix" values="0 0 0 0 0 0 0 0 0 0 0 0 0 0 0 0 0 0 127 0" result="hardAlpha"/>
<feOffset dy="4"/>
<feGaussianBlur stdDeviation="2"/>
<feComposite in2="hardAlpha" operator="out"/>
<feColorMatrix type="matrix" values="0 0 0 0 0 0 0 0 0 0 0 0 0 0 0 0 0 0 0.25 0"/>
<feBlend mode="normal" in2="BackgroundImageFix" result="effect1_dropShadow_22_9"/>
<feBlend mode="normal" in="SourceGraphic" in2="effect1_dropShadow_22_9" result="shape"/>
</filter>
<filter id="filter1_d_22_9" x="40" y="34" width="732.603" height="535" filterUnits="userSpaceOnUse" color-interpolation-filters="sRGB">
<feFlood flood-opacity="0" result="BackgroundImageFix"/>
<feColorMatrix in="SourceAlpha" type="matrix" values="0 0 0 0 0 0 0 0 0 0 0 0 0 0 0 0 0 0 127 0" result="hardAlpha"/>
<feOffset dy="4"/>
<feGaussianBlur stdDeviation="2"/>
<feComposite in2="hardAlpha" operator="out"/>
<feColorMatrix type="matrix" values="0 0 0 0 0 0 0 0 0 0 0 0 0 0 0 0 0 0 0.25 0"/>
<feBlend mode="normal" in2="BackgroundImageFix" result="effect1_dropShadow_22_9"/>
<feBlend mode="normal" in="SourceGraphic" in2="effect1_dropShadow_22_9" result="shape"/>
</filter>
<clipPath id="clip0_22_9">
<rect width="724.603" height="527" fill="white" transform="translate(44 34)"/>
</clipPath>
</defs>
</svg>
