<svg width="835" height="840" viewBox="0 0 835 840" fill="none" xmlns="http://www.w3.org/2000/svg">
<path d="M73.6692 317.625L56.8109 332.5H43.309L39.4472 324.776L39.309 324.5H39H23.9573L27.307 321.895L27.6879 321.598L27.4053 321.207L14.4053 303.207L14.4001 303.2L14.3947 303.193L0.639571 285.508L4.65161 280.604L30.8083 291.462L30.8576 291.482L30.9101 291.492L77.3614 299.983L151.982 329.633L135.335 342H130.5H130.282L130.134 342.16L123.634 349.16L123.627 349.167L123.62 349.175L117.804 355.96L94.0822 352.007L93.9597 351.986L93.8419 352.026L82.1161 355.934L77.9778 352.256L74.4974 317.95L74.3992 316.981L73.6692 317.625Z" fill="#155939" stroke="#1B8C57"/>
<path d="M265.046 117.791L256.79 135.759L244 127.232V109V94.5V94.4369L243.984 94.3758L239 74.9369V67.5V67.178L238.707 67.0448L222.316 59.5943L218.39 54.6877L218.24 54.5H218H209.36L205 41.4189V31V30.7577L204.81 30.6076L196.44 24H199.866L212.75 31.4331L212.983 31.5675L213.224 31.4472L217.969 29.0745L231.73 37.9206L232.175 38.2068L232.435 37.746L238.86 26.3789L243.66 23.9788L257.091 21.4916L257.123 21.4858L257.153 21.476L271.153 16.976L271.272 16.9378L271.359 16.8481L286.761 0.965074L290.02 12.14L290.063 12.2888L290.183 12.387L295.601 16.8193L298.977 23.5724L293.009 54.9064L292.988 55.0177L293.016 55.1272L295.516 64.6272L295.534 64.6948L295.57 64.7549L303.57 78.2549L303.616 78.3321L303.685 78.3886L314.032 86.7642L315.931 100.532L290.471 102.001L290.138 102.02L290.028 102.335L282.692 123.366L265.662 117.527L265.234 117.38L265.046 117.791Z" fill="#155939" stroke="#1B8C57"/>
<path d="M94 85.5H82V77H109.5H109.707L109.854 76.8536L115.537 71.17L122.688 76.8904L123.07 77.1966L123.384 76.8201L130.56 68.2096L137 73.73V86V86.3434L137.321 86.4667L143.795 88.9568L159.271 96.9443L159.479 97.0518L159.695 96.9605L172 91.7544V96.5V97.4343L172.777 96.916L184.777 88.916L184.8 88.9012L184.82 88.8841L196.765 78.93L208.199 73.9585L208.5 73.8278V73.5V67.8408L221.989 62.5415L234.059 67.852L239.007 93.5817L242.5 118.535V129.5V129.778L242.736 129.925L261.236 141.425L261.819 141.787L261.985 141.121L266.89 121.5H273.314L280.673 127.878L280.939 128.109L281.246 127.935L292.746 121.435L293.098 121.236L292.977 120.851L290.561 113.12L297.726 105H316.61L320.015 118.621L320.041 118.725L320.107 118.809L331.107 132.809L331.169 132.887L331.256 132.936L356.242 146.928L372.864 157.684L328.546 253.791L328.439 254.023L328.565 254.246L334.955 265.553L328.526 284.842L328.5 284.919V285V296.5H266.658L261.787 293.09L261.534 292.914L261.263 293.06L255.135 296.359L248.395 287.693L248.245 287.5H248H245.719L239.867 281.161L239.719 281H239.5H219H218.743L218.593 281.209L216.142 284.64L207.712 290.592L207.5 290.741V291V299.191L202.786 301.548L198.481 303.461L193.171 301.53L192.733 301.371L192.543 301.797L188.839 310.132L187.354 308.646L187.108 308.401L186.792 308.545L174.891 314H172.5H154.5H154V314.5V319.773L150.384 322.937L130.687 316.535L99.7178 301.55L99.7135 301.548L81.7135 293.048L81.6743 293.029L81.6326 293.018L61.6326 287.518L61.6098 287.512L61.5865 287.508L24.6416 281.017L3.74294 272.269L7.82757 265.915L17.6652 262.472L18.1238 262.311L17.9765 261.848L14.53 251.017L17.966 242.181L17.9763 242.155L17.9835 242.127L20.4408 232.79L38.7326 218.453L50.5714 215H59H59.322L59.4552 214.707L61.822 209.5H67.7929L73.1464 214.854L73.2929 215H73.5H81.5H81.9221L81.9929 214.584L94.4929 141.084L94.5179 140.937L94.4585 140.801L89.4729 129.334L86.4824 118.368L86.4389 118.209L86.3089 118.107L79.5 112.757V104.773L86.0172 100.583L93.7549 104.936L94.0524 105.103L94.3166 104.887L99.8166 100.387L100.099 100.156L99.9654 99.8172L94.4654 85.8172L94.3408 85.5H94Z" fill="#155939" stroke="#1B8C57"/>
<path d="M254.32 309.384L259.584 304.998L263.502 350.543L263.541 351H264H288V358V358.5H288.5H293.337L290.519 368.363L290.461 368.568L290.568 368.752L297.414 380.488L282.75 403.463L264.211 401.024L254.324 392.619L254.184 392.5H254H243.248L233.898 380.197L233.618 379.829L233.23 380.079L226.421 384.456L211.217 380.042L193.838 368.126L188.447 361.754L183.5 345.924V325V324.452L182.954 324.502L176.67 325.084L183.052 319.614L187.743 322.429L188.108 322.648L188.382 322.322L196.316 312.901L203.118 309.5H211H211.223L211.372 309.334L215.872 304.334L216.136 304.041L215.911 303.715L211.724 297.668L223.696 290.963L233.349 288.067L242.637 297.844L242.639 297.846L253.639 309.346L253.961 309.683L254.32 309.384ZM175.17 325.223L157.333 326.874L161.707 322.5H167.909L175.17 325.223Z" fill="#155939" stroke="#1B8C57"/>
<path d="M389.325 62.6204L383.352 57.5H392.5H392.633L392.748 57.4341L399.467 53.5945L404.5 57.2546V69V69.3693L404.853 69.4779L417.793 73.4595L429.24 80.4271L429.249 80.4323L429.257 80.4371L433.584 82.8407L437.024 93.6516L437.134 94H437.5H442.1L445.512 109.11L445.533 109.204L445.588 109.283L451.066 117.251L456.049 127.715L456.089 127.801L456.159 127.866L463.659 134.866L463.803 135H464H479.5H480V134.5V124.671L491.795 109.436L502.137 106.481L502.5 106.377V106V102.939L505.516 114.625L505.602 114.961L505.947 114.997L529.447 117.497L529.685 117.522L529.854 117.354L532.168 115.04L544.857 117.389L541.032 129.822L536.123 140.621L526.295 145.044L526 145.177V145.5V152.5V152.89L526.379 152.985L536.379 155.485L536.662 155.556L536.863 155.344L545.822 145.887L557.273 138.419L557.5 138.271V138V130.374L565.525 128.014L578.347 130.48L595.5 138.321V145.5V154.857L588.076 166.735L588.043 166.788L588.024 166.848L584.037 179.305L575.088 196.21L565.175 207.114L536.231 225.578L535.533 226.024L536.252 226.434L549.903 234.235L545.079 249.671L536.257 255.062L526.276 260.053L526 260.191V260.5V269.5V269.557L526.013 269.612L528.972 282.434L520.081 299.721L509.617 312.178L509.563 312.243L509.533 312.322L505.666 322.473L370.682 312.013L349.918 296.687L337.97 263.829L337.947 263.766L337.908 263.712L332.078 255.452L368.451 179.716L368.457 179.703L368.463 179.689L378.463 155.189L378.744 154.5H378H370.686L359.827 145.122L359.686 145H359.5H349.667L331.883 131.662L321.982 114.335L317.575 83H329.5H330V82.5V76.8832L342.63 73.4828L342.715 73.46L342.787 73.4096L352.595 66.5441L363.368 69.4824L363.537 69.5283L363.697 69.4596L370.54 66.527L381.874 69.4838L382.127 69.5498L382.325 69.3796L389.325 63.3796L389.768 63L389.325 62.6204Z" fill="#155939" stroke="#1B8C57"/>
<path d="M567 579.5H572.918L569.506 601.925L569.459 602.228L569.709 602.407L573.108 604.835L577.553 613.724L577.691 614H578H593.5H594V613.5V607.432L610.464 605.011L618.069 607.247L606.664 619.128L593.5 629.367L589.307 626.105L589.047 625.903L588.758 626.062L559.758 642.062L559.723 642.082L559.692 642.106L541.643 656.253L538.5 650.865V645.5V645.085L538.092 645.009L522.385 642.064L518.476 629.848L518.476 629.848L518.472 629.836L510.472 606.836L510.355 606.5H510H491.16L484.291 601.593L484.16 601.5H484H476.151L468.777 596.584L468.651 596.5H468.5H461H460.74L460.59 596.713L457.39 601.285L451.845 597.019L461.287 590.41L461.414 590.321L461.468 590.176L468.945 570.237L476.39 559.815L481.221 554.5H491H491.352L491.471 554.168L493.907 547.348L499.09 544.52L517.685 547.456L521.566 554.248L521.658 554.41L521.834 554.471L530.334 557.471L530.7 557.601L530.916 557.277L534.797 551.456L557.254 547.55L559.5 551.143V557V557.257L559.709 557.407L562.824 559.631L559.578 564.732L559.426 564.97L559.553 565.224L566.553 579.224L566.691 579.5H567Z" fill="#155939" stroke="#1B8C57"/>
<path d="M410.5 57.0262L421.192 65.3938L421.441 65.5886L421.724 65.4472L429.618 61.5H441H456H456.351L456.47 61.1698L462.947 43.2346L472.89 29.3135L481.506 19.741L487.529 26.2272L491.506 52.5746L491.518 52.6569L491.556 52.7307L498.056 65.2307L498.104 65.3231L498.185 65.3886L508.587 73.809L510.946 79.47L505.621 89.1518L501.223 92.084L501.062 92.1912L501.015 92.3787L498.11 104H492H491.762L491.612 104.185L476.612 122.685L476.5 122.823V123V132.5H465.719L459.912 126.209L449.977 107.332L446.491 89.4046L446.412 89H446H441.293L434.436 76.7557L434.361 76.6215L434.224 76.5528L410.5 64.691V57.0262Z" fill="#155939" stroke="#1B8C57"/>
<path d="M433.186 478.611L420.399 488.939L413.158 486.526L413.028 486.482L412.894 486.511L401.591 488.969L384.763 478.575L384.526 478.428L384.276 478.553L375.382 483H366H365.683L365.548 483.287L361.629 491.614L352.781 495.339L350.467 489.321L350.39 489.12L350.191 489.038L336 483.166V474.581L339.974 462.658L340.194 462H339.5H299.5V446V445.737L299.283 445.588L292.012 440.589L296.707 438.455L297.106 438.274L296.978 437.854L291.483 419.871L288.539 407.111L293.903 399.796L293.923 399.769L293.939 399.74L305.439 378.74L305.555 378.527L305.46 378.303L299.547 364.506L301.955 359.207L302.026 359.051L301.986 358.884L299.486 348.384L299.395 348H299H270.458L266.545 303H299H332.5H332.948L332.997 302.554L335.78 277.046L346.036 302.686L346.077 302.789L346.158 302.865L361.658 317.365L361.785 317.483L361.957 317.498L420.457 322.498L420.465 322.499L420.473 322.499L501.668 326.955L495.565 337.754L495.522 337.83L495.507 337.916L491.007 364.416L490.993 364.501L491.007 364.585L495.49 390.483L485.584 431.095L474.868 434.018L474.63 434.083L474.537 434.312L468.117 450.115L455.814 455.036L455.613 455.116L455.534 455.318L451.062 466.747L445.11 474.188L445.076 474.229L445.053 474.276L437.553 489.276L437.454 489.475L437.534 489.681L440.706 497.838L429.391 495.662L433.896 489.805L434 489.67V489.5V479V477.953L433.186 478.611Z" fill="#155939" stroke="#1B8C57"/>
<path d="M420.342 496.865L426.723 490.882L422.035 502.817L421.766 503.5H422.5H441.237L446.5 511.155V519.5V520H447H456.867L474.252 529.934L474.367 530H474.5H479.865L485.379 533.217L482.034 541.819L481.931 542.083L482.105 542.307L485.275 546.382L479.723 550.084L479.664 550.123L479.619 550.177L465.619 566.677L465.556 566.75L465.526 566.842L459.084 586.166L431.743 602.571L431.576 602.671L431.521 602.858L427.627 616H422.5H422.093L422.011 616.398L419.671 627.628L412.3 622.1L412.103 621.952L411.865 622.019L399.905 625.367L394.494 591.421L394.427 591H394H382.681L373.82 583.616L373.348 583.222L373.059 583.765L369.24 590.924L349 586.105V567V566.948L348.989 566.896L345.521 550.547L348.962 542.19L349.08 541.904L348.876 541.671L345.571 537.893L356.97 506.671L357.03 506.507L356.974 506.342L354.694 499.5H365H365.323L365.456 499.205L369.854 489.431L382.435 486.528L402.772 496.945L403.01 497.067L403.243 496.937L411.985 492.08L419.735 496.924L420.061 497.128L420.342 496.865Z" fill="#155939" stroke="#1B8C57"/>
<path d="M522.881 401.324L530.8 392.008L535.524 406.654L535.789 407.475L536.37 406.836L541.293 401.421L548.542 398.522L561.892 401.488L561.986 401.509L562.082 401.493L580.082 398.493L580.194 398.475L580.287 398.41L585.158 395H590V400.905L584.535 414.817L584.426 415.094L584.618 415.322L592.445 424.617L590.173 432.34L580.178 428.533L579.701 428.351L579.529 428.832L577.1 435.632L571.793 438.045L571.374 438.235L571.529 438.668L574 445.587V454.632L567.163 456.769L569.489 445.602L569.615 445H569H543.5H543V445.5V463V463.5H543.5H561.406L559.507 474.414L559.463 474.67L559.646 474.854L565.783 480.99L556.656 489.637L556.301 489.974L556.63 490.336L561.458 495.647L559.571 504.61L551.957 506.99L533.567 504.505L533.402 504.482L533.257 504.563L520.087 511.88L515.354 507.146L514.5 506.293V507.5V512.079L500.415 514.507L500.207 514.543L500.088 514.717L494.737 522.5H491.5H491.18L491.046 522.79L488.294 528.753L479.282 522.587L479.155 522.5H479H476.115L459.718 514.55L459.615 514.5H459.5H450.383L452.929 510.257L453.14 509.906L452.836 509.63L447.455 504.738L445.009 493.488L447.451 478.833L455.224 474.947L455.396 474.861L455.466 474.682L459.92 463.3L466.234 457.957L476.121 455.485L476.5 455.39V455V442.865L488.652 438.976L488.946 438.882L488.994 438.578L491.974 419.705L495.395 415.307L495.5 415.172V415V406.707L500.854 401.354L501 401.207V401V394.584L504 385.959V394.5V394.851L504.33 394.97L522.33 401.47L522.656 401.588L522.881 401.324Z" fill="#155939" stroke="#1B8C57"/>
<path d="M545.5 448.5H564.903L562.581 461.5H545.5V448.5Z" fill="#155939" stroke="#1B8C57"/>
<path d="M556.706 270.404L562.144 274.359L572.098 287.798L572.248 288H572.5H585V291.191L577.276 295.053L577 295.191V295.5V299.382L572.053 309.276L571.872 309.638L572.188 309.89L577 313.74V317.5V317.846L577.324 317.968L584.747 320.752L581.578 325.732L581.342 326.103L581.68 326.384L596.31 338.576L588.104 349.194L588.096 349.206L588.087 349.218L581.587 358.718L581.353 359.06L581.646 359.354L588 365.707V371.436L585.016 382.874L584.976 383.027L585.032 383.176L587.831 390.639L577.389 393.012L577.386 393.013L562.504 396.486L548.621 393.015L548.419 392.964L548.24 393.073L537.245 399.766L530.464 382.814L530.08 381.853L529.566 382.752L521.784 396.37L508.114 390.713L510.477 383.149L510.589 382.792L510.277 382.584L504.277 378.584L503.806 378.27L503.553 378.776L500.74 384.401L497.008 362.008L500.98 342.151L513.414 313.801L522.332 305.874L522.411 305.804L522.455 305.708L532.955 282.708L533.014 282.579L532.996 282.438L530.539 262.784L543.73 255.944L543.81 255.903L543.87 255.836L548.87 250.336L548.926 250.275L548.959 250.199L553.933 238.757L557.395 234.307L557.712 233.899L557.294 233.596L548.5 227.2L556.797 229.463L564.5 234.277V262.283L556.658 269.635L556.217 270.049L556.706 270.404Z" fill="#155939" stroke="#1B8C57"/>
<path d="M600 144.446L610.218 151.413L610.346 151.5H610.5H621.75L630.436 163.082L625.531 176.326L625.5 176.41V176.5V185.5V186.194L626.158 185.974L644.158 179.974L644.31 179.924L644.404 179.794L648.255 174.5H659H659.5V174V170.772L673.295 176.956L673.342 176.977L673.392 176.988L686.892 179.988L687.159 180.048L687.354 179.854L689.966 177.241L691.742 179.372L682.254 185.065L682.243 185.071L670.754 191.565L670.5 191.708V192V200.275L661.668 208.126L661.451 208.319L661.51 208.602L664.01 220.602L664.015 220.626L664.023 220.649L666.448 228.409L658.596 239.206L658.441 239.419L658.529 239.667L663.958 254.967L661.691 259.5H654.5H644H643.868L643.753 259.565L621.819 272.028L610.394 274.511L610.11 274.573L610.023 274.851L605.04 290.796L596.503 305.246L596.408 305.406L596.441 305.59L598.992 319.502L596.63 332.842L588.082 322.421L589.957 318.203L590.157 317.753L589.71 317.546L583.5 314.68V308.5V308H583H578.828L583.363 299.383L589.71 296.454L590 296.32V296V283.5V283.367L589.934 283.252L587.934 279.752L587.724 279.385L587.327 279.531L578.137 282.917L570.5 274.802V268.5V268H570H566.5L570.192 266.462L570.5 266.333V266V260.118L572.947 255.224L573.013 255.092L572.997 254.945L570.497 232.445L570.468 232.181L570.233 232.058L552.871 222.894L561.292 215.409L572.746 208.935L572.863 208.869L572.931 208.753L589.931 179.753L589.966 179.694L589.984 179.627L592.469 170.181L599.944 155.73L600 155.622V155.5V144.446Z" fill="#155939" stroke="#5EA689"/>
<path d="M694.227 182.5H698.32L696.023 189.851L695.972 190.014L696.031 190.174L703.919 211.373L698.646 216.646L698.421 216.872L698.53 217.172L706 237.589V246V246.034L706.005 246.068L709.005 268.068L709.064 268.5H709.5H715.204L709.049 281.283L708.915 281.562L709.105 281.807L712.313 285.931L709.175 288.62L708.69 289.036L709.209 289.407L712.14 291.5L698.709 301.093L698.618 301.159L698.563 301.257L693.706 310H688H687.5V310.5V314.12L666.5 319.981L654.135 316.519L654.069 316.5H654H645H644.68L644.546 316.79L641.546 323.29L641.449 323.5L641.546 323.71L644.415 329.925L635.763 340.5H630H629.902L629.811 340.537L616.74 345.862L612.947 338.276L612.847 338.076L612.63 338.017L600.116 334.648L603.982 320.633L604.017 320.504L603.984 320.375L600.04 305.091L608.916 291.777L608.958 291.714L608.979 291.642L612.894 278.431L625.098 275.99L625.174 275.975L625.241 275.938L645.128 265H663H663.32L663.454 264.71L669.454 251.71L669.555 251.491L669.447 251.276L663.608 239.599L672.354 230.854L672.555 230.652L672.484 230.376L667.055 209.152L675.354 200.854L675.5 200.707V200.5V194.5H683.5H683.727L683.876 194.329L694.227 182.5Z" fill="#155939" stroke="#1B8C57"/>
<path d="M776.18 219.384L783.177 225.448L776.223 230.084L776.114 230.156L776.055 230.272L766.194 249.5H759H758.713L758.568 249.748L755.068 255.748L755 255.865V256V261.422L751.524 272.348L751.472 272.512L751.531 272.673L754.915 281.859L748.988 287.331L735.325 275.62L735.185 275.5H735H717.85L722.437 267.243L722.664 266.834L722.272 266.58L713.986 261.219L712.499 232.474L712.495 232.382L712.457 232.297L706.533 218.969L708.977 211.149L709.016 211.024L708.989 210.897L703.596 185.4L719.481 182.512L730.788 185.462L751.702 199.902L766.188 211.39L766.189 211.392L776.18 219.384Z" fill="#155939" stroke="#1B8C57"/>
<path d="M802.516 257.375L799.253 269.959L796.376 266.671L796.227 266.5H796H788.651L784.686 263.857L793.421 250.27L794.031 249.321L792.918 249.507L774.918 252.507L774.76 252.533L774.646 252.646L770.293 257H762.5V253.5H767H767.281L767.427 253.26L779.879 232.838L784 229.633L788.193 232.895L788.328 233H788.5H792.75L795.6 236.8L795.75 237H796H812.5H814.908L825.061 240.868L829.364 263.338L815.121 260.015L815.117 260.014L803.121 257.015L802.64 256.895L802.516 257.375Z" fill="#155939" stroke="#1B8C57"/>
<path d="M766.296 263.957L766.47 264.034L766.652 263.976L779.152 259.976L779.214 259.957L779.268 259.922L783.245 257.391L778.553 266.776L778.363 267.155L778.706 267.404L784.206 271.404L784.226 271.419L784.248 271.432L790.248 274.932L790.581 275.126L790.854 274.854L793.831 271.876L796.54 278.197L796.731 278.641L797.181 278.466L806.181 274.966L806.5 274.842V274.5V264.707L809.146 267.354L809.293 267.5H809.5H819.416L830.593 271.388L834.33 284H823.5H823.26L823.11 284.188L819.192 289.085L811.904 292H801.5H801.274L801.125 292.169L794.065 300.171L791.017 295.381L792.497 282.557L792.534 282.237L792.257 282.071L784.757 277.571L784.501 277.418L784.245 277.57L768.363 287H760.11L761.49 280.098L761.524 279.93L761.447 279.776L757.034 270.95L759.824 261.065L766.296 263.957Z" fill="#155939" stroke="#1B8C57"/>
<path d="M718.783 294.912L719 294.763V294.5V288.5V288.404L718.964 288.314L716.239 281.5H731.817L747.678 294.882L748.015 295.167L748.339 294.867L754.695 289H760.5H774H774.143L774.265 288.924L785.954 281.619L789 284.23V298V298.164L789.097 298.296L794.597 305.796L795.002 306.348L795.404 305.794L803.168 295.119L810.8 298.458L810.952 298.525L811.114 298.487L826.114 294.987L826.5 294.897V294.5V289H833V294.449L828.615 315.888L817.121 313.015L816.991 312.982L816.863 313.019L806.363 316.019L806.216 316.061L806.118 316.177L800.794 322.469L789.697 321.021L779.308 313.106L774.312 309.11L773.935 308.808L773.62 309.175L767.77 316H763.73L757.88 309.175L757.474 308.701L757.1 309.2L754.403 312.796L746.304 306.603L746.294 306.595L746.283 306.588L738.283 301.088L737.954 300.862L737.661 301.133L724.805 313H718.5H718.153L718.032 313.324L715.314 320.571L708.391 313.186L703.195 305.629L718.783 294.912Z" fill="#155939" stroke="#1B8C57"/>
<path d="M816.953 318.615L822.755 323.525L807.652 338.141L807.652 338.141L807.646 338.146L798.064 347.729L788.407 334.209L788.314 334.079L788.163 334.027L772.251 328.558L766.274 323.5L772.117 318.556L780.296 320.961L794.241 329.427L794.456 329.558L794.689 329.463L808.189 323.963L808.226 323.948L808.261 323.927L816.953 318.615Z" fill="#155939" stroke="#1B8C57"/>
<path d="M785.691 338.418L795.239 350.831L782.27 357.556L782.122 357.633L782.049 357.783L775.686 371H767.5V366.5V366.414L767.471 366.334L764.707 358.5H770H770.354L770.471 358.166L776.471 341.166L776.555 340.931L776.416 340.723L771.276 333.012L785.691 338.418Z" fill="#155939" stroke="#1B8C57"/>
<path d="M613.703 351.457L631.606 343.5H637.5H637.695L637.839 343.368L650.339 331.868L650.642 331.589L650.426 331.238L646.5 324.858V319H658.322L666.185 325.388L666.389 325.554L666.642 325.48L688.642 318.98L689 318.874V318.5V313H694H694.207L694.354 312.854L698.5 308.707L718.146 328.354L718.864 329.072L718.996 328.065L720.439 317H726.5H726.732L726.882 316.823L737.594 304.163L756.723 316.916L757.5 317.434V316.5V314.532L762.057 323.232L762.062 323.241L762.067 323.249L773.445 343.038L768.14 356.059L760.408 357.509L759.735 357.635L760.06 358.237L763.5 364.626V374.5V375H764H773.033L756.797 397.922L746.637 395.019L746.269 394.914L746.071 395.243L741.578 402.732L741.571 402.743L734.578 413.732L734.477 413.891L734.506 414.077L736.991 429.983L734.512 440.889L734.495 440.968L734.502 441.048L736.99 466.92L729.041 485.302L729.014 485.363L729.005 485.429L726.029 506.264L718.431 513.861L712.08 509.779L714.482 501.134L714.566 500.832L714.331 500.625L706 493.274V489H711.5H711.852L711.971 488.668L714.444 481.743L722.896 470.806L723.083 470.564L722.952 470.287L718.952 461.787L718.86 461.591L718.655 461.524L698.655 455.024L698.447 454.957L698.257 455.063L694.147 457.346L684.407 443.709L684.257 443.5H684H677.055L663.852 440.566L658.955 429.793L658.822 429.5H658.5H650H649.775L649.626 429.668L645.775 434H641.5V426V425.842L641.41 425.713L637.91 420.713L637.724 420.448L637.406 420.509L624.406 423.009L624.317 423.026L624.239 423.073L606.359 434H601.5H601.238L601.089 434.215L596.738 440.5H593.5V434.588L597.47 423.671L597.565 423.409L597.392 423.19L590.057 413.899L593.476 403.152L593.5 403.078V403V395.5V390.5V390.406L593.466 390.319L590.019 381.456L593.49 364.601L593.54 364.358L593.376 364.171L586.662 356.497L601.625 339.121L610.101 343.359L613.032 351.176L613.218 351.672L613.703 351.457Z" fill="#155939" stroke="#1B8C57"/>
<path d="M685.062 513.741L690.381 523.412L685.146 528.646L684.819 528.974L685.12 529.325L688.08 532.779L690.423 537.464L679.654 553.617L671.266 558.058L671.073 558.16L671.017 558.371L669.062 565.701L661.704 571.097L661.5 571.247V571.5V576.374L658.06 582.763L658 582.874V583V590.125L646.59 593.453L641.787 590.09L641.587 589.95L641.353 590.022L590.853 605.522L590.5 605.63V606V612.332L582.832 610.076L576 598.365V576.5V576H575.5H569.303L564.056 565.984L566.455 560.707L566.542 560.516L566.467 560.321L563.967 553.821L563.962 553.809L563.957 553.797L559.957 544.797L559.814 544.474L559.462 544.501L533.462 546.501L533.197 546.522L533.066 546.752L529.269 553.396L523.889 551.603L521.471 544.832L521.375 544.564L521.096 544.509L500.596 540.509L500.456 540.482L500.322 540.533L490.063 544.441L484.649 540.832L493.305 524H498H498.352L498.471 523.668L500.852 517H516.5H517V516.5V509.83L524.766 513.942L524.982 514.056L525.205 513.956L535.107 509.5H554.5H554.568L554.634 509.482L563.634 506.982L564 506.88V506.5V496V495.867L563.934 495.752L560.163 489.152L569.282 482.913L569.696 482.63L569.412 482.217L564.065 474.439L569.407 461.326L575.785 456.911L576 456.762V456.5V437.33L582.37 434.6L587.13 439.836L587.151 439.859L587.175 439.88L590.675 442.88L590.927 443.096L591.224 442.947L602.192 437.463L611.158 434.474L611.227 434.451L611.287 434.41L626.158 424H634.723L637 427.643V437V437.38L637.366 437.482L646.366 439.982L646.552 440.033L646.724 439.947L651.618 437.5H654.827L661.691 442.893L661.74 442.932L661.797 442.957L679.638 450.886L685.057 461.232L685.138 461.386L685.297 461.457L694.297 465.457L694.548 465.569L694.777 465.416L700.529 461.582L714.816 469.202L707.706 482H704H703.696L703.556 482.27L696.556 495.77L696.383 496.103L696.655 496.362L704.113 503.481L704.021 503.424L703.767 503.558L694.276 508.553L694.267 508.558L685.276 513.053L684.811 513.285L685.062 513.741Z" fill="#155939" stroke="#1B8C57"/>
<path d="M668.547 573.001L671.534 580.681L671.658 581H672H682.5V593.228L674.228 598.58L674.226 598.582L661.226 607.082L661 607.23V607.5V610.561L634.587 613.985L627.724 610.553L627.534 610.458L627.335 610.528L618.769 613.526L625.413 603.782L625.829 603.172L625.108 603.012L617.892 601.408L640.286 594.096L643.578 599.268L643.784 599.592L644.15 599.477L661.65 593.977L661.898 593.899L661.976 593.652L668.547 573.001Z" fill="#155939" stroke="#1B8C57"/>
<path d="M713.012 531.392L713 531.445V531.5V543.849L703.123 558.664L693.176 567.119L693.123 567.164L693.084 567.223L687.232 576H679.28L674 567.359V562.774L679.268 559.422L679.342 559.375L679.396 559.306L687.896 548.306L687.944 548.243L687.971 548.168L690.452 541.221L693.922 535.768L694.069 535.537L693.953 535.289L690.555 528.008L693.947 521.224L694.059 521L693.947 520.776L690.671 514.224L699.99 509.564L715.93 518.259L713.012 531.392Z" fill="#155939" stroke="#1B8C57"/>
<path d="M488 670.5V676.159L476.818 680.534L476.5 680.659V681V683.879L461.107 680.512L461.097 680.509L461.087 680.508L435.854 676.055L428.96 659.805L428.831 659.5H428.5H416.671L423.479 636.643L423.5 636.573V636.5V620H431.5H431.887L431.984 619.625L435.983 604.13L450.431 599.546L458.235 604.424L458.572 604.635L458.854 604.354L463.707 599.5H468.364L476.746 604.431L476.864 604.5H477H483.793L488.146 608.854L488.293 609H488.5H508.635L520.024 644.652L520.113 644.933L520.402 644.99L535 647.91V653.5V653.642L535.074 653.762L538.605 659.5H532.5H532.24L532.09 659.713L528.59 664.713L528.399 664.987L528.578 665.268L531.863 670.43L528.882 673.411L520.69 670.038L520.436 669.933L520.212 670.092L511.909 675.952L503.641 673.52L503.572 673.5H503.5H499.578L488.652 670.024L488 669.816V670.5Z" fill="#155939" stroke="#1B8C57"/>
<path d="M511.854 684.354L517.707 678.5H527.89L524.01 697.902L523.986 698.021L524.019 698.137L527.973 711.976L521.075 729.713L505.803 744H503.265L506.444 736.732L511.927 727.761L512.291 727.164L511.608 727.012L493.756 723.045L482.861 711.654L482.808 711.599L482.742 711.562L468.242 703.562L468.233 703.557L468.224 703.553L461.224 700.053L461.166 700.024L461.102 700.011L449.117 697.514L438.132 694.518L437.937 694.465L437.761 694.561L433 697.158V687.5V681H437.842L442.713 684.41L442.842 684.5H443H451.411L460.827 687.969L460.853 687.979L460.879 687.985L478.879 692.485L479.289 692.588L479.458 692.2L482.877 684.385L491.19 680.962L491.283 680.924L491.354 680.854L493.707 678.5H505.78L511.131 684.338L511.484 684.723L511.854 684.354Z" fill="#155939" stroke="#1B8C57"/>
<path d="M420.714 705.952L420.782 705.92L420.838 705.869L426.741 700.458L439.484 697.517L457.813 702.966L476.202 712.409L491.146 727.354L491.249 727.457L491.392 727.488L504.295 730.355L498.543 743.297L498.361 743.706L498.748 743.932L504.343 747.196L491.086 773.71L474.156 791.636L452.178 810.117L452.078 810.201L452.032 810.323L445.068 828.728L435.5 838.752V829.245L439.807 825.895L439.893 825.828L439.943 825.731L445.943 814.231L446.237 813.669L445.621 813.515L432 810.11V801V800.691L431.724 800.553L420.805 795.094L414.867 788.661L414.775 788.56L414.644 788.521L404.809 785.571L396.408 773.711L396.065 773.227L395.646 773.646L389 780.293V774V773.762L388.815 773.612L370.315 758.612L370.054 758.4L369.759 758.562L362.591 762.504L370.362 754.345L370.391 754.315L370.414 754.281L379.889 740.317L396.354 723.354L396.359 723.348L404.822 714.885L411.251 710.434L420.714 705.952Z" fill="#155939" stroke="#1B8C57"/>
</svg>
