<svg width="531" height="402" viewBox="0 0 531 402" fill="none" xmlns="http://www.w3.org/2000/svg">
<g clip-path="url(#clip0_538_383)">
<rect x="175" y="76" width="100" height="31" fill="black"/>
<circle r="21" transform="matrix(0.593909 0.804532 0.804532 -0.593909 425.083 130.086)" fill="black"/>
<path d="M358.5 148.5L417.326 150.727L428.75 108.113L375 105L358.5 148.5Z" fill="url(#paint0_linear_538_383)"/>
<path d="M533.101 91.8278C531.055 97.8061 527.407 103.108 522.553 107.154C517.7 111.201 511.829 113.836 505.58 114.774C499.331 115.712 492.945 114.915 487.118 112.472C481.291 110.028 476.247 106.031 472.536 100.916C468.825 95.8018 466.59 89.7664 466.075 83.4687C465.56 77.1709 466.784 70.8526 469.615 65.2031C472.445 59.5536 476.772 54.7899 482.125 51.4317C487.477 48.0735 493.649 46.2498 499.968 46.1596L500.229 64.469C497.264 64.5114 494.368 65.3671 491.857 66.9429C489.345 68.5187 487.314 70.754 485.986 73.405C484.658 76.0559 484.084 79.0207 484.325 81.9759C484.567 84.931 485.616 87.763 487.357 90.1629C489.098 92.5628 491.465 94.4384 494.199 95.5851C496.934 96.7318 499.93 97.1056 502.863 96.6656C505.795 96.2256 508.55 94.9887 510.827 93.09C513.105 91.1912 514.817 88.7035 515.777 85.8983L533.101 91.8278Z" fill="black"/>
<path d="M432.859 106.944L432.306 153.341L487.417 112.658L465.443 82.891L432.859 106.944Z" fill="url(#paint1_linear_538_383)"/>
<circle r="21" transform="matrix(-1 0 0 1 47.2168 171.752)" fill="black"/>
<path d="M75.4119 104.683L35.2168 153.252L62.7168 187.752L92.7483 147.512L75.4119 104.683Z" fill="url(#paint2_linear_538_383)"/>
<path d="M13.8439 281.378C10.2494 276.181 8.1511 270.097 7.77799 263.789C7.40488 257.482 8.77128 251.192 11.7281 245.608C14.6849 240.024 19.1186 235.359 24.5455 232.122C29.9723 228.885 36.1839 227.201 42.5024 227.253C48.821 227.305 55.0039 229.092 60.3766 232.418C65.7493 235.744 70.1054 240.481 72.9697 246.113C75.834 251.746 77.0964 258.057 76.6193 264.357C76.1422 270.658 73.9438 276.707 70.264 281.844L55.3781 271.18C57.1048 268.769 58.1364 265.931 58.3603 262.975C58.5842 260.018 57.9918 257.057 56.6478 254.414C55.3037 251.771 53.2597 249.548 50.7386 247.987C48.2175 246.427 45.3163 245.588 42.3514 245.564C39.3864 245.54 36.4718 246.33 33.9253 247.849C31.3788 249.367 29.2983 251.556 27.9109 254.177C26.5234 256.797 25.8822 259.748 26.0573 262.708C26.2324 265.668 27.217 268.523 28.9037 270.961L13.8439 281.378Z" fill="black"/>
<path d="M61.2167 191.753L24.2174 163.752L24.2174 232.252L61.2169 232.252L61.2167 191.753Z" fill="url(#paint3_linear_538_383)"/>
<path fill-rule="evenodd" clip-rule="evenodd" d="M348 359.5L225.5 227L98.5 359.5H165V345H285V359.5H348Z" fill="url(#paint4_linear_538_383)"/>
<path d="M12.9326 38H68V43H12.9326V38Z" fill="black"/>
<path d="M13 40C13 47.1797 10.7614 53 8 53C5.23858 53 3 47.1797 3 40C3 32.8203 5.23858 27 8 27C10.7614 27 13 32.8203 13 40Z" fill="white" fill-opacity="0.7"/>
<path d="M180 218H269V274C234.249 282.05 214.754 281.538 180 274V218Z" fill="black"/>
<path d="M75 105C190.597 86.4608 256.217 86.0327 375 105L315.5 262H136L75 105Z" fill="url(#paint5_linear_538_383)"/>
<path d="M127 143H322L283.325 245H166.65L127 143Z" fill="url(#paint6_linear_538_383)"/>
<path d="M166.992 244.5L127.731 143.5H321.276L282.98 244.5H166.992Z" stroke="black" stroke-opacity="0.2"/>
<rect x="256" y="165" width="5" height="58" fill="black"/>
<rect x="266" y="165" width="5" height="58" fill="black"/>
<path d="M172.98 168.48C177.278 165.155 179.478 165.192 182.98 168.48C175.421 189.502 174.572 200.624 182.98 218.48C179.532 222.767 177.24 221.819 172.98 218.48C164.979 198.049 165.034 187.206 172.98 168.48Z" fill="black"/>
<path d="M302.95 134.967L303.55 125.507L319.6 123.247V126.411L310.3 126.562V130.179H320.8V134.967H302.95Z" fill="#01532B"/>
<path d="M303.7 121.74L304 113H321.85L321.7 117.822H310.933L310.75 121.137L303.7 121.74Z" fill="black"/>
<path d="M299.35 125.959L298.9 135H291.1L286.75 127.466L282.7 127.767L282.55 135H276.25L276.7 128.069L282.7 127.767L286.75 127.466L292.6 126.863L293.35 127.466V126.712L299.35 125.959Z" fill="#01532B"/>
<path d="M299.95 113.15L299.35 122.342L293.35 122.945L293.65 113.15H299.95L299.35 122.342L293.35 122.945L293.65 113.15H299.95Z" fill="black"/>
<path d="M291.1 123.397L284.65 124L283 120.986L282.85 124.301L276.85 124.904L277.15 113H285.55L291.1 123.397Z" fill="#040404"/>
<path d="M325 122.191C318.85 124.301 284.05 129.123 271 128.219L298.15 125.808L325 122.191Z" fill="#0A784E"/>
<rect x="51" y="333" width="100" height="69" fill="black"/>
<rect x="51" y="354" width="100" height="27" fill="#3C3C3C"/>
<rect x="298" y="333" width="100" height="69" fill="black"/>
<rect x="298" y="354" width="100" height="27" fill="#3C3C3C"/>
<path d="M386 40.5C386 81 313.694 81 224.5 81C135.306 81 63.0001 80.9999 63 40.5C62.9999 0.000148773 135.306 0 224.5 0C313.694 0 386 0 386 40.5Z" fill="url(#paint7_linear_538_383)"/>
<path d="M441.065 38H386V43H441.065V38Z" fill="black"/>
<ellipse rx="5" ry="13" transform="matrix(-1 0 0 1 446 40)" fill="white" fill-opacity="0.7"/>
<path d="M190 32C190 41.9411 187 50 180 50C173 50 170 41.9411 170 32C170 22.0589 173 14 180 14C187 14 190 22.0589 190 32Z" fill="black"/>
<path d="M280 32C280 41.9411 277 50 270 50C263 50 260 41.9411 260 32C260 22.0589 263 14 270 14C277 14 280 22.0589 280 32Z" fill="black"/>
</g>
<defs>
<linearGradient id="paint0_linear_538_383" x1="382.107" y1="142.186" x2="374.578" y2="88.4881" gradientUnits="userSpaceOnUse">
<stop offset="0.0559264" stop-color="#1B8C57"/>
<stop offset="1" stop-color="#1B6442"/>
</linearGradient>
<linearGradient id="paint1_linear_538_383" x1="447.179" y1="110.08" x2="492.644" y2="93.9535" gradientUnits="userSpaceOnUse">
<stop offset="0.0559264" stop-color="#1B8C57"/>
<stop offset="1" stop-color="#1B6442"/>
</linearGradient>
<linearGradient id="paint2_linear_538_383" x1="62.9995" y1="130" x2="110.673" y2="155.836" gradientUnits="userSpaceOnUse">
<stop offset="0.0559264" stop-color="#1B8C57"/>
<stop offset="1" stop-color="#1B6442"/>
</linearGradient>
<linearGradient id="paint3_linear_538_383" x1="52.6689" y1="185.819" x2="8.3036" y2="235.178" gradientUnits="userSpaceOnUse">
<stop offset="0.0559264" stop-color="#1B8C57"/>
<stop offset="1" stop-color="#155939"/>
</linearGradient>
<linearGradient id="paint4_linear_538_383" x1="227.408" y1="231.48" x2="222.705" y2="414.558" gradientUnits="userSpaceOnUse">
<stop offset="0.0559264" stop-color="#0BB364"/>
<stop offset="1" stop-color="#1B6442"/>
</linearGradient>
<linearGradient id="paint5_linear_538_383" x1="230" y1="96" x2="225" y2="303" gradientUnits="userSpaceOnUse">
<stop offset="0.0559264" stop-color="#0BB364"/>
<stop offset="1" stop-color="#1B6442"/>
</linearGradient>
<linearGradient id="paint6_linear_538_383" x1="227.75" y1="146.02" x2="225.015" y2="269.458" gradientUnits="userSpaceOnUse">
<stop offset="0.0559264" stop-color="#0BB364"/>
<stop offset="1" stop-color="#1B6442"/>
</linearGradient>
<linearGradient id="paint7_linear_538_383" x1="225" y1="0" x2="225" y2="77" gradientUnits="userSpaceOnUse">
<stop stop-color="#11C06E"/>
<stop offset="1" stop-color="#24905D"/>
</linearGradient>
<clipPath id="clip0_538_383">
<rect width="531" height="402" fill="white"/>
</clipPath>
</defs>
</svg>
