<svg width="448" height="402" viewBox="0 0 448 402" fill="none" xmlns="http://www.w3.org/2000/svg">
<rect x="172" y="76" width="100" height="31" fill="black"/>
<circle cx="400" cy="172" r="21" fill="black"/>
<path d="M371.805 104.931L412 153.5L384.5 188L354.469 147.759L371.805 104.931Z" fill="url(#paint0_linear_530_369)"/>
<path d="M433.373 281.626C436.968 276.429 439.066 270.345 439.439 264.037C439.812 257.729 438.446 251.44 435.489 245.856C432.532 240.271 428.099 235.606 422.672 232.37C417.245 229.133 411.033 227.449 404.715 227.501C398.396 227.553 392.213 229.339 386.841 232.665C381.468 235.991 377.112 240.729 374.248 246.361C371.383 251.993 370.121 258.304 370.598 264.605C371.075 270.906 373.274 276.954 376.953 282.091L391.839 271.427C390.112 269.017 389.081 266.179 388.857 263.222C388.633 260.266 389.225 257.304 390.57 254.661C391.914 252.019 393.958 249.796 396.479 248.235C399 246.674 401.901 245.836 404.866 245.812C407.831 245.787 410.746 246.577 413.292 248.096C415.839 249.615 417.919 251.804 419.306 254.424C420.694 257.045 421.335 259.996 421.16 262.956C420.985 265.915 420 268.77 418.314 271.209L433.373 281.626Z" fill="black"/>
<path d="M386.001 192L423 164L423 232.5L386 232.5L386.001 192Z" fill="url(#paint1_linear_530_369)"/>
<circle r="21" transform="matrix(-1 0 0 1 44.2173 171.752)" fill="black"/>
<path d="M72.4124 104.683L32.2173 153.252L59.7173 187.752L89.7488 147.511L72.4124 104.683Z" fill="url(#paint2_linear_530_369)"/>
<path d="M10.8439 281.378C7.24939 276.181 5.1511 270.097 4.77799 263.789C4.40488 257.481 5.77128 251.192 8.72811 245.608C11.6849 240.023 16.1186 235.358 21.5455 232.122C26.9723 228.885 33.1839 227.201 39.5024 227.253C45.821 227.305 52.0039 229.091 57.3766 232.417C62.7493 235.743 67.1054 240.481 69.9697 246.113C72.834 251.745 74.0964 258.056 73.6193 264.357C73.1422 270.658 70.9438 276.706 67.264 281.843L52.3781 271.179C54.1048 268.769 55.1364 265.931 55.3603 262.974C55.5842 260.018 54.9918 257.056 53.6478 254.413C52.3037 251.77 50.2597 249.547 47.7386 247.987C45.2175 246.426 42.3163 245.588 39.3514 245.563C36.3864 245.539 33.4718 246.329 30.9253 247.848C28.3788 249.367 26.2983 251.556 24.9109 254.176C23.5234 256.797 22.8822 259.748 23.0573 262.708C23.2324 265.667 24.217 268.522 25.9037 270.961L10.8439 281.378Z" fill="black"/>
<path d="M58.2167 191.752L21.2174 163.752L21.2174 232.252L58.2169 232.252L58.2167 191.752Z" fill="url(#paint3_linear_530_369)"/>
<path fill-rule="evenodd" clip-rule="evenodd" d="M345 359.5L222.5 227L95.5 359.5H162V345H282V359.5H345Z" fill="url(#paint4_linear_530_369)"/>
<path d="M9.93262 38H65V43H9.93262V38Z" fill="black"/>
<path d="M10 40C10 47.1797 7.76142 53 5 53C2.23858 53 0 47.1797 0 40C0 32.8203 2.23858 27 5 27C7.76142 27 10 32.8203 10 40Z" fill="white" fill-opacity="0.7"/>
<path d="M177 218H266V274C231.249 282.05 211.754 281.538 177 274V218Z" fill="black"/>
<path d="M72 105C187.597 86.4608 253.217 86.0327 372 105L312.5 262H133L72 105Z" fill="url(#paint5_linear_530_369)"/>
<path d="M124 143H319L280.325 245H163.65L124 143Z" fill="url(#paint6_linear_530_369)"/>
<path d="M163.992 244.5L124.731 143.5H318.276L279.98 244.5H163.992Z" stroke="black" stroke-opacity="0.2"/>
<rect x="253" y="165" width="5" height="58" fill="black"/>
<rect x="263" y="165" width="5" height="58" fill="black"/>
<path d="M169.98 168.48C174.278 165.155 176.478 165.192 179.98 168.48C172.421 189.502 171.572 200.624 179.98 218.48C176.532 222.767 174.24 221.819 169.98 218.48C161.979 198.049 162.034 187.206 169.98 168.48Z" fill="black"/>
<path d="M299.95 134.967L300.55 125.507L316.6 123.247V126.411L307.3 126.562V130.179H317.8V134.967H299.95Z" fill="#01532B"/>
<path d="M300.7 121.74L301 113H318.85L318.7 117.822H307.933L307.75 121.137L300.7 121.74Z" fill="black"/>
<path d="M296.35 125.959L295.9 135H288.1L283.75 127.466L279.7 127.767L279.55 135H273.25L273.7 128.069L279.7 127.767L283.75 127.466L289.6 126.863L290.35 127.466V126.712L296.35 125.959Z" fill="#01532B"/>
<path d="M296.95 113.15L296.35 122.342L290.35 122.945L290.65 113.15H296.95L296.35 122.342L290.35 122.945L290.65 113.15H296.95Z" fill="black"/>
<path d="M288.1 123.397L281.65 124L280 120.986L279.85 124.301L273.85 124.904L274.15 113H282.55L288.1 123.397Z" fill="#040404"/>
<path d="M322 122.191C315.85 124.301 281.05 129.123 268 128.219L295.15 125.808L322 122.191Z" fill="#0A784E"/>
<rect x="48" y="333" width="100" height="69" fill="black"/>
<rect x="48" y="354" width="100" height="27" fill="#3C3C3C"/>
<rect x="295" y="333" width="100" height="69" fill="black"/>
<rect x="295" y="354" width="100" height="27" fill="#3C3C3C"/>
<path d="M383 40.5C383 81 310.694 81 221.5 81C132.306 81 60.0001 80.9998 60 40.5C59.9999 0.000148773 132.306 0 221.5 0C310.694 0 383 0 383 40.5Z" fill="url(#paint7_linear_530_369)"/>
<path d="M438.066 38H383V43H438.066V38Z" fill="black"/>
<ellipse rx="5" ry="13" transform="matrix(-1 0 0 1 443 40)" fill="white" fill-opacity="0.7"/>
<path d="M187 32C187 41.9411 184 50 177 50C170 50 167 41.9411 167 32C167 22.0589 170 14 177 14C184 14 187 22.0589 187 32Z" fill="black"/>
<path d="M277 32C277 41.9411 274 50 267 50C260 50 257 41.9411 257 32C257 22.0589 260 14 267 14C274 14 277 22.0589 277 32Z" fill="black"/>
<defs>
<linearGradient id="paint0_linear_530_369" x1="384.217" y1="130.248" x2="336.544" y2="156.083" gradientUnits="userSpaceOnUse">
<stop offset="0.0559264" stop-color="#1B8C57"/>
<stop offset="1" stop-color="#1B6442"/>
</linearGradient>
<linearGradient id="paint1_linear_530_369" x1="397.028" y1="201.659" x2="411.056" y2="247.814" gradientUnits="userSpaceOnUse">
<stop offset="0.0559264" stop-color="#1B8C57"/>
<stop offset="1" stop-color="#1B6442"/>
</linearGradient>
<linearGradient id="paint2_linear_530_369" x1="60" y1="130" x2="107.673" y2="155.835" gradientUnits="userSpaceOnUse">
<stop offset="0.0559264" stop-color="#1B8C57"/>
<stop offset="1" stop-color="#1B6442"/>
</linearGradient>
<linearGradient id="paint3_linear_530_369" x1="49.6689" y1="185.819" x2="5.3036" y2="235.178" gradientUnits="userSpaceOnUse">
<stop offset="0.0559264" stop-color="#1B8C57"/>
<stop offset="1" stop-color="#155939"/>
</linearGradient>
<linearGradient id="paint4_linear_530_369" x1="224.408" y1="231.48" x2="219.705" y2="414.558" gradientUnits="userSpaceOnUse">
<stop offset="0.0559264" stop-color="#0BB364"/>
<stop offset="1" stop-color="#1B6442"/>
</linearGradient>
<linearGradient id="paint5_linear_530_369" x1="227" y1="96" x2="222" y2="303" gradientUnits="userSpaceOnUse">
<stop offset="0.0559264" stop-color="#0BB364"/>
<stop offset="1" stop-color="#1B6442"/>
</linearGradient>
<linearGradient id="paint6_linear_530_369" x1="224.75" y1="146.02" x2="222.015" y2="269.458" gradientUnits="userSpaceOnUse">
<stop offset="0.0559264" stop-color="#0BB364"/>
<stop offset="1" stop-color="#1B6442"/>
</linearGradient>
<linearGradient id="paint7_linear_530_369" x1="222" y1="0" x2="222" y2="77" gradientUnits="userSpaceOnUse">
<stop stop-color="#11C06E"/>
<stop offset="1" stop-color="#24905D"/>
</linearGradient>
</defs>
</svg>
