<svg width="471" height="402" viewBox="0 0 471 402" fill="none" xmlns="http://www.w3.org/2000/svg">
<path d="M281 261L237.5 208L193.5 258.5L167.5 310L115.339 311V342.5H184L222 301H251L289 342.5H368.5V311L305 310L281 261Z" fill="url(#paint0_linear_542_329)"/>
<rect x="193" y="76" width="85" height="31" fill="black"/>
<circle r="21" transform="matrix(-1 0 0 1 57.2173 171.752)" fill="black"/>
<path d="M85.4124 104.683L45.2173 153.252L72.7173 187.752L102.749 147.511L85.4124 104.683Z" fill="url(#paint1_linear_542_329)"/>
<path d="M23.8439 281.378C20.2494 276.181 18.1511 270.097 17.778 263.789C17.4049 257.481 18.7713 251.192 21.7281 245.608C24.6849 240.023 29.1186 235.358 34.5455 232.122C39.9723 228.885 46.1839 227.201 52.5024 227.253C58.821 227.305 65.0039 229.091 70.3766 232.417C75.7493 235.743 80.1054 240.481 82.9697 246.113C85.834 251.745 87.0964 258.056 86.6193 264.357C86.1422 270.658 83.9438 276.706 80.264 281.843L65.3781 271.179C67.1048 268.769 68.1364 265.931 68.3603 262.974C68.5842 260.018 67.9918 257.056 66.6478 254.413C65.3037 251.77 63.2597 249.547 60.7386 247.987C58.2175 246.426 55.3163 245.588 52.3514 245.563C49.3864 245.539 46.4718 246.329 43.9253 247.848C41.3788 249.367 39.2983 251.556 37.9109 254.176C36.5234 256.797 35.8822 259.748 36.0573 262.708C36.2324 265.667 37.217 268.522 38.9037 270.961L23.8439 281.378Z" fill="black"/>
<path d="M71.2167 191.752L34.2174 163.752L34.2174 232.252L71.2169 232.252L71.2167 191.752Z" fill="url(#paint2_linear_542_329)"/>
<circle cx="412.847" cy="171.752" r="21" fill="black"/>
<path d="M384.652 104.683L424.847 153.252L397.347 187.752L367.316 147.511L384.652 104.683Z" fill="url(#paint3_linear_542_329)"/>
<path d="M446.221 281.378C449.815 276.181 451.913 270.097 452.286 263.789C452.66 257.481 451.293 251.192 448.336 245.608C445.38 240.023 440.946 235.358 435.519 232.122C430.092 228.885 423.881 227.201 417.562 227.253C411.243 227.305 405.061 229.091 399.688 232.417C394.315 235.743 389.959 240.481 387.095 246.113C384.23 251.745 382.968 258.056 383.445 264.357C383.922 270.658 386.121 276.706 389.801 281.843L404.686 271.179C402.96 268.769 401.928 265.931 401.704 262.974C401.48 260.018 402.073 257.056 403.417 254.413C404.761 251.77 406.805 249.547 409.326 247.987C411.847 246.426 414.748 245.588 417.713 245.563C420.678 245.539 423.593 246.329 426.139 247.848C428.686 249.367 430.766 251.556 432.154 254.176C433.541 256.797 434.182 259.748 434.007 262.708C433.832 265.667 432.847 268.522 431.161 270.961L446.221 281.378Z" fill="black"/>
<path d="M398.848 191.752L435.847 163.752L435.847 232.252L398.848 232.252L398.848 191.752Z" fill="url(#paint4_linear_542_329)"/>
<path d="M185 219H288V275.139C247.783 283.209 225.221 282.695 185 275.139V219Z" fill="black"/>
<path d="M85 105C200.597 86.4608 266.217 86.0327 385 105L325.5 262H146L85 105Z" fill="url(#paint5_linear_542_329)"/>
<path d="M137 143H332L293.325 245H176.65L137 143Z" fill="url(#paint6_linear_542_329)"/>
<path d="M176.992 244.5L137.731 143.5H331.276L292.98 244.5H176.992Z" stroke="black" stroke-opacity="0.2"/>
<path d="M312.95 134.967L313.55 125.507L329.6 123.247V126.411L320.3 126.562V130.179H330.8V134.967H312.95Z" fill="#01532B"/>
<path d="M313.7 121.74L314 113H331.85L331.7 117.822H320.933L320.75 121.137L313.7 121.74Z" fill="black"/>
<path d="M309.35 125.959L308.9 135H301.1L296.75 127.466L292.7 127.767L292.55 135H286.25L286.7 128.069L292.7 127.767L296.75 127.466L302.6 126.863L303.35 127.466V126.712L309.35 125.959Z" fill="#01532B"/>
<path d="M309.95 113.15L309.35 122.342L303.35 122.945L303.65 113.15H309.95L309.35 122.342L303.35 122.945L303.65 113.15H309.95Z" fill="black"/>
<path d="M301.1 123.397L294.65 124L293 120.986L292.85 124.301L286.85 124.904L287.15 113H295.55L301.1 123.397Z" fill="#040404"/>
<path d="M335 122.191C328.85 124.301 294.05 129.123 281 128.219L308.15 125.808L335 122.191Z" fill="#0A784E"/>
<rect x="49" y="292" width="113.873" height="69" rx="10" fill="black"/>
<path d="M51 296H61L71.3438 304H143.044L152 296H161L145.079 308H66.3164L51 296Z" fill="#8D5500"/>
<path d="M49 308H59.6962L71.344 316H143.044L153.738 308H163L145.079 320H66.3166L49 308Z" fill="#8D5500"/>
<path d="M49 320H59.6962L71.344 328H143.044L153.738 320H163L145.079 332H66.3166L49 320Z" fill="#8D5500"/>
<path d="M49 332H59.6962L71.344 340H143.044L153.738 332H163L145.079 344H66.3166L49 332Z" fill="#8D5500"/>
<path d="M49 344H59.6962L71.344 352H143.044L153.738 344H163L145.079 356H66.3166L49 344Z" fill="#8D5500"/>
<rect x="310" y="292" width="113.873" height="69" rx="10" fill="black"/>
<rect x="310" y="303.5" width="113.873" height="27" rx="10" fill="black"/>
<path d="M312 296H322L332.344 304H404.044L413 296H422L406.079 308H327.316L312 296Z" fill="#8D5500"/>
<path d="M310 308H320.696L332.344 316H404.044L414.738 308H424L406.079 320H327.317L310 308Z" fill="#8D5500"/>
<path d="M310 320H320.696L332.344 328H404.044L414.738 320H424L406.079 332H327.317L310 320Z" fill="#8D5500"/>
<path d="M310 332H320.696L332.344 340H404.044L414.738 332H424L406.079 344H327.317L310 332Z" fill="#8D5500"/>
<path d="M310 344H320.696L332.344 352H404.044L414.738 344H424L406.079 356H327.317L310 344Z" fill="#8D5500"/>
<ellipse cx="82.5" cy="40" rx="5.5" ry="7" fill="black"/>
<path d="M85 38H126.797V43H85V38Z" fill="black"/>
<ellipse cx="387.297" cy="40" rx="5.5" ry="7" transform="rotate(-180 387.297 40)" fill="black"/>
<path d="M384.797 42H343V37H384.797V42Z" fill="black"/>
<path d="M363 40.5C363 81 305.692 81 235 81C164.308 81 107 80.9998 107 40.5C107 0.000148773 164.308 0 235 0C305.692 0 363 0 363 40.5Z" fill="url(#paint7_linear_542_329)"/>
<path d="M203.519 35C203.519 44.9411 200.923 53 194.865 53C188.808 53 186.211 44.9411 186.211 35C186.211 25.0589 188.808 17 194.865 17C200.923 17 203.519 25.0589 203.519 35Z" fill="black"/>
<path d="M281.404 35C281.404 44.9411 278.808 53 272.75 53C266.692 53 264.096 44.9411 264.096 35C264.096 25.0589 266.692 17 272.75 17C278.808 17 281.404 25.0589 281.404 35Z" fill="black"/>
<path d="M261.5 56.6658C259.156 61.6452 254.433 66.4731 249.5 69.5C244.567 72.5269 239.004 74.0231 233.271 74C227.537 73.9769 222.455 72.5647 218 69.5C213.545 66.4353 209.061 61.6607 207.5 56.6655L212.981 56.6655C215.5 60.5 217.308 63.9599 221 66.5C224.692 69.0401 228.519 69.4809 233.271 69.5C238.022 69.5192 242.411 69.0087 246.5 66.5C250.589 63.9913 254.557 60.7925 256.5 56.6655L261.5 56.6658Z" fill="black"/>
<defs>
<linearGradient id="paint0_linear_542_329" x1="243.408" y1="182.98" x2="238.705" y2="366.058" gradientUnits="userSpaceOnUse">
<stop offset="0.0559264" stop-color="#0BB364"/>
<stop offset="1" stop-color="#1B6442"/>
</linearGradient>
<linearGradient id="paint1_linear_542_329" x1="73" y1="130" x2="120.673" y2="155.835" gradientUnits="userSpaceOnUse">
<stop offset="0.0559264" stop-color="#1B8C57"/>
<stop offset="1" stop-color="#1B6442"/>
</linearGradient>
<linearGradient id="paint2_linear_542_329" x1="62.6689" y1="185.819" x2="18.3036" y2="235.178" gradientUnits="userSpaceOnUse">
<stop offset="0.0559264" stop-color="#1B8C57"/>
<stop offset="1" stop-color="#155939"/>
</linearGradient>
<linearGradient id="paint3_linear_542_329" x1="397.064" y1="130" x2="349.391" y2="155.835" gradientUnits="userSpaceOnUse">
<stop offset="0.0559264" stop-color="#1B8C57"/>
<stop offset="1" stop-color="#1B6442"/>
</linearGradient>
<linearGradient id="paint4_linear_542_329" x1="407.396" y1="185.819" x2="451.761" y2="235.178" gradientUnits="userSpaceOnUse">
<stop offset="0.0559264" stop-color="#1B8C57"/>
<stop offset="1" stop-color="#155939"/>
</linearGradient>
<linearGradient id="paint5_linear_542_329" x1="240" y1="96" x2="235" y2="303" gradientUnits="userSpaceOnUse">
<stop offset="0.0559264" stop-color="#0BB364"/>
<stop offset="1" stop-color="#1B6442"/>
</linearGradient>
<linearGradient id="paint6_linear_542_329" x1="237.75" y1="146.02" x2="235.015" y2="269.458" gradientUnits="userSpaceOnUse">
<stop offset="0.0559264" stop-color="#0BB364"/>
<stop offset="1" stop-color="#1B6442"/>
</linearGradient>
<linearGradient id="paint7_linear_542_329" x1="235.396" y1="0" x2="235.396" y2="77" gradientUnits="userSpaceOnUse">
<stop stop-color="#11C06E"/>
<stop offset="1" stop-color="#24905D"/>
</linearGradient>
</defs>
</svg>
