<svg width="1879" height="1074" viewBox="0 0 1879 1074" fill="none" xmlns="http://www.w3.org/2000/svg">
<g clip-path="url(#clip0_525_1516)">
<path d="M308.854 488.333V186.502C308.854 182.192 310.566 178.058 313.612 175.01C316.659 171.962 320.791 170.25 325.099 170.25C329.408 170.25 333.539 171.962 336.586 175.01C339.632 178.058 341.344 182.192 341.344 186.502V488.333C341.344 492.643 339.632 496.777 336.586 499.825C333.539 502.873 329.408 504.585 325.099 504.585C320.791 504.585 316.659 502.873 313.612 499.825C310.566 496.777 308.854 492.643 308.854 488.333Z" fill="#F0F0F0"/>
<path d="M269.983 488.333V186.502C269.983 182.192 271.694 178.058 274.741 175.01C277.787 171.962 281.919 170.25 286.228 170.25C290.536 170.25 294.668 171.962 297.714 175.01C300.761 178.058 302.472 182.192 302.472 186.502V488.333C302.472 492.643 300.761 496.777 297.714 499.825C294.668 502.873 290.536 504.585 286.228 504.585C281.919 504.585 277.787 502.873 274.741 499.825C271.694 496.777 269.983 492.643 269.983 488.333V488.333Z" fill="#F0F0F0"/>
<path d="M231.112 488.333V186.502C231.112 182.192 232.823 178.058 235.87 175.01C238.916 171.962 243.048 170.25 247.356 170.25C251.665 170.25 255.797 171.962 258.843 175.01C261.89 178.058 263.601 182.192 263.601 186.502V488.333C263.601 492.643 261.89 496.777 258.843 499.825C255.797 502.873 251.665 504.585 247.356 504.585C243.048 504.585 238.916 502.873 235.87 499.825C232.823 496.777 231.112 492.643 231.112 488.333Z" fill="#F0F0F0"/>
<path d="M1698.72 970.417C1692.18 970.421 1685.69 969.294 1679.53 967.084L1678.58 966.741L1679.02 964.639C1667.99 942.349 1671.84 911.812 1688.89 886.703C1704.38 863.878 1727.94 847.283 1748.73 832.643C1751.37 830.786 1754.5 829.76 1757.72 829.698C1760.95 829.637 1764.12 830.541 1766.82 832.296C1769.53 834.051 1771.65 836.576 1772.91 839.546C1774.17 842.516 1774.52 845.796 1773.9 848.963L1766.47 887.118C1761.1 914.644 1754.72 940.696 1735.8 956.942C1725.4 965.644 1712.28 970.414 1698.72 970.417Z" fill="#E6E6E6"/>
<path d="M1747.4 1036.35C1740.2 1036.31 1733.13 1034.47 1726.82 1030.99C1720.51 1027.52 1715.17 1022.52 1711.28 1016.46L1710.74 1015.62L1712.03 1014.49C1715.35 996.337 1731 980.164 1752 973.208C1771.09 966.886 1792.16 967.92 1810.74 968.829C1813.19 968.949 1815.56 969.795 1817.53 971.26C1819.51 972.726 1821 974.745 1821.83 977.061C1822.65 979.377 1822.77 981.887 1822.17 984.271C1821.57 986.656 1820.27 988.808 1818.45 990.456L1797.55 1009.33C1782.35 1023.05 1767.2 1035.43 1748.93 1036.32C1748.42 1036.34 1747.91 1036.35 1747.4 1036.35Z" fill="#E6E6E6"/>
<path d="M1682.53 1056.53C1679.44 1033.53 1676.27 1010.24 1678.43 986.994C1680.35 966.351 1686.51 946.188 1699.05 929.655C1705.67 920.925 1713.77 913.42 1722.98 907.48C1725.37 905.935 1727.57 909.813 1725.19 911.351C1709.23 921.716 1696.95 936.864 1690.12 954.629C1682.48 974.491 1681.26 996.143 1682.57 1017.24C1683.37 1030 1685.05 1042.68 1686.75 1055.34C1686.89 1055.91 1686.81 1056.5 1686.53 1057.01C1686.24 1057.53 1685.78 1057.91 1685.22 1058.1C1684.94 1058.17 1684.65 1058.19 1684.36 1058.15C1684.08 1058.11 1683.8 1058.02 1683.55 1057.87C1683.3 1057.73 1683.08 1057.53 1682.9 1057.3C1682.73 1057.07 1682.6 1056.81 1682.53 1056.53V1056.53Z" fill="#F2F2F2"/>
<path d="M1673.8 1069.75C1688.66 1042.86 1705.89 1012.98 1736.69 1003.42C1745.24 1000.78 1754.23 999.83 1763.14 1000.63C1765.95 1000.88 1765.25 1005.31 1762.44 1005.06C1747.47 1003.8 1732.53 1007.84 1720.23 1016.48C1708.33 1024.77 1699.06 1036.29 1691.22 1048.5C1686.41 1055.99 1682.11 1063.79 1677.81 1071.58C1676.43 1074.07 1672.41 1072.27 1673.8 1069.75H1673.8Z" fill="#F2F2F2"/>
<path d="M1667.12 1069.36L1682.12 1069.7L1591.66 586.219L1576.66 589.047L1600.28 714.469H1524.17L1547.8 589.047L1532.79 586.219L1443.09 1069.7L1457.34 1069.36L1504.5 818.948H1619.95L1667.12 1069.36ZM1507.99 800.374L1520.68 733.043H1603.78L1616.46 800.374H1507.99Z" fill="#CACACA"/>
<path d="M1012.02 496.034V337.258C1012.02 332.544 1019.31 328.709 1028.27 328.709C1037.22 328.709 1044.51 332.544 1044.51 337.258V496.034C1044.51 500.748 1037.22 504.583 1028.27 504.583C1019.31 504.583 1012.02 500.748 1012.02 496.034Z" fill="#F0F0F0"/>
<path d="M973.15 496.034V337.258C973.15 332.544 980.437 328.709 989.395 328.709C998.352 328.709 1005.64 332.544 1005.64 337.258V496.034C1005.64 500.748 998.352 504.583 989.395 504.583C980.437 504.583 973.15 500.748 973.15 496.034Z" fill="#F0F0F0"/>
<path d="M934.278 496.034V337.258C934.278 332.544 941.566 328.709 950.523 328.709C959.481 328.709 966.768 332.544 966.768 337.258V496.034C966.768 500.748 959.481 504.583 950.523 504.583C941.566 504.583 934.278 500.748 934.278 496.034Z" fill="#F0F0F0"/>
<path d="M1261.3 379.271C1261.22 378.788 1261.05 378.326 1260.79 377.915C1260.53 377.504 1260.18 377.152 1259.77 376.883L1137.3 295.995C1139.15 295.225 1140.69 293.872 1141.7 292.143H1141.7C1142.92 290.008 1143.25 287.476 1142.62 285.099C1141.98 282.722 1140.43 280.693 1138.3 279.456L1128.25 273.652C1126.12 272.428 1123.59 272.098 1121.21 272.735C1118.84 273.372 1116.81 274.924 1115.57 277.051C1114.9 278.221 1114.5 279.523 1114.4 280.866L1025.99 222.477C1023.02 215.283 1018.52 208.824 1012.8 203.548C1007.08 198.273 1000.28 194.308 992.876 191.931V166.187H960.386V191.931C949.607 195.38 940.201 202.166 933.528 211.31C926.854 220.454 923.257 231.483 923.255 242.805V249.77H955.745C955.745 255.312 957.945 260.627 961.862 264.546C965.779 268.465 971.092 270.666 976.631 270.666C982.17 270.666 987.483 268.465 991.4 264.546C995.317 260.627 997.517 255.312 997.517 249.77H1030.01V242.805C1030 239.466 1029.69 236.135 1029.07 232.854L1252.71 380.565L1159.81 493.567C1159.09 493.563 1158.37 493.557 1157.64 493.557C1150.23 493.557 1143.05 493.732 1136.21 494.034C1136.62 492.886 1136.8 491.668 1136.74 490.45C1136.6 487.993 1135.5 485.689 1133.67 484.042C1131.85 482.394 1129.44 481.538 1126.98 481.658L1115.4 482.263C1112.94 482.398 1110.64 483.5 1108.99 485.328C1107.35 487.157 1106.49 489.562 1106.61 492.02C1106.7 493.472 1107.13 494.883 1107.87 496.134C1087.38 498.313 1074.1 501.316 1074.1 502.844C1074.1 505.347 1109.75 502.964 1154.38 502.849C1154.58 503.43 1154.94 503.945 1155.41 504.343C1155.88 504.741 1156.44 505.007 1157.05 505.113C1157.66 505.22 1158.28 505.163 1158.86 504.949C1159.43 504.735 1159.94 504.371 1160.33 503.895L1161.19 502.85C1205.69 502.974 1241.19 505.342 1241.19 502.844C1241.19 500.488 1209.62 494.628 1168.72 493.689L1260.54 382.002C1260.85 381.625 1261.08 381.187 1261.21 380.716C1261.34 380.246 1261.37 379.753 1261.3 379.271Z" fill="#CCCCCC"/>
<path d="M1264.65 1070.52H978.7C972.922 1070.51 967.382 1068.21 963.296 1064.12C959.21 1060.03 956.912 1054.49 956.905 1048.71V579.211C956.899 574.046 954.845 569.093 951.194 565.441C947.543 561.788 942.593 559.734 937.43 559.728H268.572C263.409 559.734 258.459 561.788 254.808 565.441C251.157 569.093 249.103 574.046 249.097 579.211V1048.71C249.09 1054.49 246.792 1060.03 242.706 1064.12C238.62 1068.21 233.08 1070.51 227.301 1070.52H217.517C211.739 1070.51 206.198 1068.21 202.112 1064.12C198.026 1060.03 195.728 1054.49 195.721 1048.71V553.923C195.737 540.073 201.243 526.795 211.032 517.001C220.821 507.208 234.093 501.699 247.937 501.684H1234.23C1248.07 501.699 1261.34 507.208 1271.13 517.002C1280.92 526.795 1286.43 540.073 1286.44 553.923V1048.71C1286.44 1054.49 1284.14 1060.03 1280.05 1064.12C1275.96 1068.21 1270.42 1070.51 1264.65 1070.52V1070.52Z" fill="#E4E4E4"/>
<path d="M1285.28 623.576H958.065V637.507H1285.28V623.576Z" fill="white"/>
<path d="M1285.28 811.64H958.065V825.57H1285.28V811.64Z" fill="white"/>
<path d="M687.204 499.39L677.799 495.429L671.348 448.262H585.436L578.443 495.236L570.029 499.445C569.627 499.646 569.304 499.978 569.113 500.386C568.923 500.793 568.875 501.254 568.978 501.692C569.082 502.13 569.33 502.521 569.683 502.8C570.036 503.079 570.473 503.231 570.923 503.232H686.429C686.89 503.232 687.337 503.072 687.694 502.78C688.051 502.487 688.296 502.081 688.387 501.628C688.478 501.176 688.41 500.706 688.195 500.298C687.979 499.89 687.629 499.569 687.204 499.39V499.39Z" fill="#E6E6E6"/>
<path d="M839.876 454.537H417.851C415.637 454.532 413.515 453.649 411.951 452.081C410.387 450.512 409.509 448.388 409.509 446.172V386.633H848.218V446.172C848.218 448.388 847.34 450.512 845.776 452.081C844.212 453.649 842.09 454.532 839.876 454.537V454.537Z" fill="#CCCCCC"/>
<path d="M848.659 414.773H409.123V160.018C409.127 157.345 410.189 154.781 412.079 152.891C413.969 151.001 416.531 149.937 419.203 149.934H838.58C841.252 149.937 843.814 151.001 845.703 152.891C847.593 154.781 848.656 157.345 848.659 160.018V414.773Z" fill="#3F3D56"/>
<path d="M822.407 396.283H435.375C433.315 396.28 431.34 395.461 429.883 394.003C428.426 392.546 427.607 390.57 427.605 388.509V176.198C427.607 174.137 428.426 172.161 429.883 170.704C431.34 169.246 433.315 168.426 435.375 168.424H822.407C824.468 168.426 826.443 169.246 827.899 170.704C829.356 172.161 830.176 174.137 830.178 176.198V388.509C830.176 390.57 829.356 392.546 827.899 394.003C826.443 395.461 824.468 396.28 822.407 396.283V396.283Z" fill="white"/>
<path d="M1256.28 192.797C1259.98 192.263 1263.75 192.548 1267.33 193.632C1270.91 194.715 1274.21 196.571 1277 199.068C1279.79 201.565 1281.99 204.643 1283.46 208.085C1284.93 211.527 1285.62 215.249 1285.5 218.989L1370.35 251.667L1331.91 279.148L1257.22 243.904C1250.96 243.277 1245.14 240.372 1240.87 235.74C1236.6 231.108 1234.18 225.07 1234.06 218.77C1233.94 212.471 1236.14 206.347 1240.24 201.56C1244.33 196.773 1250.04 193.655 1256.28 192.797V192.797Z" fill="#9E616A"/>
<path d="M1578.48 176.755L1592.83 202.868C1589.36 219.43 1580.4 234.331 1567.39 245.149C1545.41 263.695 1430.49 332.765 1430.49 332.765L1285.41 259.895L1310.79 226.153L1424.69 264.344C1466.94 224.425 1517.93 194.934 1573.6 178.221L1578.48 176.755Z" fill="#E4E4E4"/>
<path d="M1551.78 608.848C1614.32 608.848 1665.01 592.322 1665.01 571.937C1665.01 551.551 1614.32 535.025 1551.78 535.025C1489.25 535.025 1438.55 551.551 1438.55 571.937C1438.55 592.322 1489.25 608.848 1551.78 608.848Z" fill="#CACACA"/>
<path d="M1297.77 1038.08L1267.7 1029.76L1285.45 909.778L1329.82 922.053L1297.77 1038.08Z" fill="#9E616A"/>
<path d="M1297.38 1069.36L1200.43 1042.54L1200.77 1041.32C1203.53 1031.31 1210.16 1022.8 1219.2 1017.68C1228.23 1012.56 1238.92 1011.23 1248.93 1014L1248.93 1014L1308.15 1030.38L1297.38 1069.36Z" fill="#2F2E41"/>
<path d="M1210.59 1038.47L1182.05 1025.86L1217.08 909.743L1259.19 928.347L1210.59 1038.47Z" fill="#9E616A"/>
<path d="M1205.65 1069.36L1113.64 1028.71L1114.16 1027.54C1118.35 1018.04 1126.15 1010.59 1135.83 1006.84C1145.51 1003.09 1156.28 1003.34 1165.78 1007.53L1165.79 1007.53L1221.98 1032.36L1205.65 1069.36Z" fill="#2F2E41"/>
<path d="M1639.9 481.691C1639.9 481.691 1655.03 528.575 1562.23 587.866L1442.71 707.017L1318.52 1004.22L1244.8 971.148L1259.26 932.533L1268.96 906.621L1273.92 893.364L1279.24 879.153L1358.17 668.367L1424.48 552.224L1426.4 489.203L1442.71 444.78L1561.02 402.777L1639.9 481.691Z" fill="#2F2E41"/>
<path d="M1579.56 484.013C1579.56 484.013 1594.69 530.897 1501.89 590.188L1382.37 709.338L1258.18 1006.54L1184.46 973.47L1198.92 934.854L1208.62 908.943L1213.58 895.686L1218.91 881.475L1297.84 670.689L1320.04 631.801C1349.32 580.5 1384.91 533.065 1425.97 490.602L1447.73 468.095L1450.05 433.269L1500.69 405.098L1579.56 484.013Z" fill="#2F2E41"/>
<path d="M1508.07 254.492L1545.2 175.552L1610 166.709C1610 166.709 1660.59 231.201 1647.31 321.824C1642.33 355.807 1638.27 389.64 1638.03 419.338C1637.96 427.24 1644.87 430.769 1644.99 437.912C1645.1 444.93 1631.89 456.361 1635.71 461.13C1641.16 467.703 1644.41 475.826 1644.99 484.348C1640.39 495.298 1501.21 435.976 1442.71 444.779L1508.07 254.492Z" fill="#E4E4E4"/>
<path d="M1600.1 126.967C1616.64 99.1303 1607.49 63.1501 1579.67 46.6028C1551.85 30.0556 1515.88 39.2074 1499.34 67.044C1482.8 94.8805 1491.95 130.861 1519.77 147.408C1547.6 163.955 1583.56 154.803 1600.1 126.967Z" fill="#9E616A"/>
<path d="M1587.19 75.9521C1587.08 77.495 1586.92 79.5384 1586.75 81.8501C1586.56 88.1786 1588.35 94.408 1591.85 99.6812C1595.13 105.229 1591.22 138.735 1591.22 138.735C1687.22 71.7838 1611.36 4.52062 1581.69 10.4999C1582.31 1.98561 1558.11 5.35855 1558.11 5.35855C1548.89 -9.00816 1528.68 10.0625 1528.68 10.0625L1532.58 3.49897C1516.89 7.49177 1501.38 56.0067 1501.38 56.0067C1506.7 76.9367 1587.81 67.4379 1587.19 75.9521Z" fill="#2F2E41"/>
<path d="M1214.77 285.546C1247.76 241.643 1273.84 192.949 1292.1 141.152C1293.16 138.054 1293.08 134.681 1291.89 131.633C1290.69 128.585 1288.46 126.06 1285.57 124.508L1172.68 63.9902C1170.86 63.0037 1168.83 62.4471 1166.76 62.3629C1164.68 62.2787 1162.62 62.669 1160.72 63.5041C1158.78 64.3456 1157.06 65.6178 1155.69 67.2239C1154.32 68.8299 1153.34 70.7275 1152.81 72.7722C1139.67 122.685 1114.97 168.802 1080.71 207.393C1079.3 208.964 1078.27 210.836 1077.69 212.866C1077.11 214.897 1077.01 217.033 1077.38 219.112C1077.74 221.157 1078.56 223.094 1079.77 224.775C1080.99 226.455 1082.58 227.836 1084.41 228.81L1197.3 289.328C1200.19 290.869 1203.53 291.334 1206.73 290.641C1209.93 289.949 1212.78 288.143 1214.77 285.546V285.546Z" fill="#CCCCCC"/>
<path d="M1207.06 279.754C1206.46 280.513 1205.6 281.035 1204.65 281.231C1203.7 281.428 1202.71 281.286 1201.85 280.831L1088.96 220.312C1088.42 220.026 1087.94 219.617 1087.58 219.117C1087.21 218.617 1086.97 218.039 1086.87 217.429C1086.75 216.786 1086.78 216.123 1086.96 215.494C1087.14 214.865 1087.47 214.287 1087.91 213.805C1123.18 174.077 1148.61 126.601 1162.13 75.2174C1162.29 74.5825 1162.59 73.9925 1163.01 73.4935C1163.44 72.9946 1163.97 72.6002 1164.57 72.3412C1165.13 72.0882 1165.75 71.9699 1166.37 71.9955C1166.99 72.0211 1167.59 72.1899 1168.13 72.4887L1281.02 133.006C1281.88 133.468 1282.55 134.215 1282.91 135.117C1283.27 136.019 1283.31 137.019 1283.01 137.946C1265.08 188.815 1239.46 236.638 1207.06 279.754V279.754Z" fill="white"/>
<path d="M1167.57 129.986L1245.43 175.646C1253.18 180.189 1260.2 168.153 1252.46 163.618L1174.6 117.957C1166.85 113.414 1159.83 125.45 1167.57 129.986V129.986Z" fill="#155939"/>
<path d="M1153.65 155.525L1231.51 201.186C1239.26 205.729 1246.27 193.693 1238.54 189.157L1160.67 143.496C1152.93 138.954 1145.91 150.989 1153.65 155.525V155.525Z" fill="#155939"/>
<path d="M1137.4 183.387L1215.26 229.047C1223.01 233.59 1230.03 221.554 1222.29 217.018L1144.43 171.358C1136.68 166.815 1129.67 178.851 1137.4 183.387V183.387Z" fill="#155939"/>
<path d="M1121.16 206.604L1199.02 252.265C1206.77 256.808 1213.78 244.772 1206.05 240.236L1128.18 194.576C1120.44 190.033 1113.42 202.069 1121.16 206.604V206.604Z" fill="#155939"/>
<path d="M1476.12 475.183L1505.35 540.949C1506.05 542.523 1506.35 544.248 1506.23 545.969C1506.1 547.689 1505.54 549.35 1504.61 550.801C1503.51 552.536 1501.92 553.906 1500.05 554.741C1498.17 555.575 1496.09 555.835 1494.07 555.489C1493.38 555.384 1492.71 555.203 1492.06 554.951C1489.47 553.953 1487.39 551.971 1486.26 549.439L1457.03 483.674C1456.47 482.42 1456.17 481.069 1456.13 479.698C1456.1 478.326 1456.33 476.961 1456.83 475.68C1457.82 473.094 1459.8 471.008 1462.33 469.882C1464.86 468.756 1467.73 468.682 1470.32 469.676C1472.91 470.671 1474.99 472.651 1476.12 475.183Z" fill="#155939"/>
<path d="M1502.99 535.645L1508.85 548.918L1511.84 567.736C1512.04 568.975 1511.82 570.244 1511.22 571.347C1510.63 572.45 1509.68 573.324 1508.54 573.834C1507.39 574.344 1506.11 574.46 1504.89 574.166C1503.67 573.871 1502.58 573.182 1501.8 572.205L1489.68 557.119L1483.91 544.136L1502.99 535.645Z" fill="#3F3D56"/>
<path d="M1450.54 456.886L1454.72 483.215C1454.86 484.077 1455.19 484.896 1455.7 485.609C1456.2 486.322 1456.86 486.909 1457.63 487.325C1458.4 487.742 1459.25 487.976 1460.12 488.01C1460.99 488.045 1461.86 487.878 1462.66 487.523L1466.81 485.676L1474.83 503.708C1475.08 504.27 1475.54 504.709 1476.11 504.929C1476.69 505.149 1477.33 505.133 1477.89 504.883C1478.45 504.633 1478.89 504.17 1479.11 503.596C1479.33 503.022 1479.32 502.384 1479.07 501.821L1471.05 483.789L1475.2 481.941C1476.58 481.328 1477.66 480.194 1478.2 478.787C1478.74 477.381 1478.71 475.816 1478.1 474.436C1477.9 473.979 1477.64 473.551 1477.32 473.162L1460.58 452.415C1459.8 451.439 1458.71 450.75 1457.49 450.456C1456.27 450.162 1454.99 450.279 1453.84 450.789C1452.7 451.299 1451.75 452.173 1451.15 453.275C1450.56 454.378 1450.34 455.647 1450.54 456.886V456.886Z" fill="#3F3D56"/>
<path d="M1462.66 504.409C1463.32 500.725 1464.78 497.231 1466.93 494.172C1469.09 491.112 1471.89 488.563 1475.13 486.703C1478.38 484.844 1481.99 483.719 1485.72 483.407C1489.45 483.096 1493.2 483.606 1496.71 484.902L1554.41 414.603L1568.39 459.76L1511.45 519.594C1508.88 525.348 1504.29 529.96 1498.55 532.556C1492.82 535.152 1486.33 535.552 1480.31 533.68C1474.3 531.809 1469.18 527.795 1465.93 522.4C1462.67 517.005 1461.51 510.604 1462.66 504.409Z" fill="#9E616A"/>
<path d="M1535.31 499.841L1509.89 463.112L1582.07 366.839L1544.89 287.132L1547.59 192.322L1578.32 186.645L1578.7 186.836C1593.63 195.438 1605.18 208.893 1611.42 224.966C1619.08 244.135 1636.19 316.096 1645.71 357.284C1647.58 365.266 1647.37 373.593 1645.11 381.473C1642.86 389.354 1638.62 396.524 1632.8 402.301L1535.31 499.841Z" fill="#E4E4E4"/>
<path d="M819.697 322.368C819.486 324.152 819.416 325.95 819.487 327.745L689.359 422.459L653.61 406.63L622.682 457.485L683.247 491.66C688.14 494.421 693.796 495.519 699.365 494.79C704.935 494.061 710.119 491.544 714.137 487.618L845.106 359.634C851.81 361.338 858.873 360.96 865.357 358.55C871.841 356.14 877.437 351.812 881.403 346.142C885.368 340.472 887.514 333.728 887.555 326.808C887.596 319.888 885.53 313.12 881.632 307.403C877.734 301.686 872.189 297.292 865.735 294.806C859.28 292.319 852.221 291.857 845.498 293.481C838.774 295.106 832.705 298.74 828.096 303.9C823.487 309.06 820.558 315.502 819.697 322.368V322.368Z" fill="#FFB6B6"/>
<path d="M685.151 425.921L647.204 489.185C646.124 490.985 644.669 492.531 642.938 493.718C641.207 494.905 639.241 495.704 637.174 496.062C635.106 496.42 632.986 496.328 630.957 495.793C628.928 495.257 627.039 494.29 625.417 492.958L568.6 446.273C559.428 440.693 552.842 431.702 550.285 421.272C547.728 410.841 549.409 399.822 554.96 390.63C560.51 381.438 569.477 374.822 579.895 372.234C590.313 369.645 601.332 371.295 610.536 376.821L678.23 404.912C680.167 405.717 681.909 406.931 683.336 408.47C684.763 410.009 685.842 411.837 686.499 413.831C687.156 415.825 687.375 417.937 687.143 420.023C686.91 422.11 686.231 424.121 685.151 425.921L685.151 425.921Z" fill="#6C63FF"/>
<path d="M522.558 975.802H596.941V852.48H522.558V975.802Z" fill="#CACACA"/>
<path d="M593.214 917.734L583.667 931.81L762.188 1053.01L771.735 1038.93L593.214 917.734Z" fill="#CACACA"/>
<path d="M526.285 917.734L347.764 1038.93L357.312 1053.01L535.832 931.81L526.285 917.734Z" fill="#CACACA"/>
<path d="M766.961 1069.36C779.872 1069.36 790.339 1058.89 790.339 1045.97C790.339 1033.05 779.872 1022.58 766.961 1022.58C754.05 1022.58 743.583 1033.05 743.583 1045.97C743.583 1058.89 754.05 1069.36 766.961 1069.36Z" fill="#CACACA"/>
<path d="M558.687 1069.36C571.598 1069.36 582.065 1058.89 582.065 1045.97C582.065 1033.05 571.598 1022.58 558.687 1022.58C545.776 1022.58 535.309 1033.05 535.309 1045.97C535.309 1058.89 545.776 1069.36 558.687 1069.36Z" fill="#CACACA"/>
<path d="M352.538 1069.36C365.449 1069.36 375.916 1058.89 375.916 1045.97C375.916 1033.05 365.449 1022.58 352.538 1022.58C339.627 1022.58 329.16 1033.05 329.16 1045.97C329.16 1058.89 339.627 1069.36 352.538 1069.36Z" fill="#CACACA"/>
<path d="M567.188 924.772H550.186V1045.97H567.188V924.772Z" fill="#CACACA"/>
<path d="M543.81 907.762H575.689V744.041H543.81V907.762Z" fill="#CACACA"/>
<path d="M468.364 769.556V731.284C468.372 724.237 471.173 717.482 476.154 712.499C481.134 707.516 487.886 704.713 494.929 704.706H637.321C644.364 704.714 651.116 707.516 656.097 712.499C661.077 717.482 663.878 724.237 663.886 731.284V769.556C663.878 776.603 661.077 783.358 656.097 788.341C651.116 793.323 644.364 796.126 637.321 796.134H494.929C487.886 796.126 481.134 793.323 476.154 788.341C471.173 783.358 468.372 776.603 468.364 769.556V769.556Z" fill="#3F3D56"/>
<path d="M725.541 1031.17L764.918 1031.16L783.655 928.981L725.536 928.983L725.541 1031.17Z" fill="#FFB8B8"/>
<path d="M715.498 1069.36L842.474 1069.35V1067.74C842.474 1061.25 841.196 1054.82 838.712 1048.82C836.229 1042.82 832.588 1037.37 827.999 1032.78C823.41 1028.19 817.962 1024.55 811.966 1022.06C805.97 1019.58 799.543 1018.3 793.053 1018.3H793.048L715.495 1018.3L715.498 1069.36Z" fill="#2F2E41"/>
<path d="M784.44 967.801L862.947 791.67C869.502 776.825 870.226 760.054 864.977 744.699C859.727 729.343 848.889 716.529 834.621 708.81L664.336 617.454L586.631 610.841L514.954 604.323L514.437 605.199C513.776 606.316 498.365 632.947 508.782 662.149C516.684 684.299 537.238 701.601 569.873 713.574C646.046 741.517 734.041 765.399 768.337 774.369C769.853 774.757 771.27 775.461 772.494 776.436C773.718 777.41 774.722 778.633 775.44 780.024C776.16 781.398 776.587 782.907 776.696 784.455C776.804 786.003 776.591 787.557 776.07 789.018L703.134 952.96C702.373 955.039 702.098 957.266 702.333 959.468C702.567 961.67 703.304 963.788 704.486 965.661C705.668 967.533 707.265 969.108 709.152 970.266C711.039 971.423 713.166 972.131 715.37 972.336L769.869 976.306C770.332 976.35 770.792 976.372 771.251 976.372C774.042 976.371 776.773 975.561 779.114 974.04C781.454 972.518 783.304 970.352 784.44 967.801V967.801Z" fill="#2F2E41"/>
<path d="M699.844 1031.17L739.221 1031.16L757.958 928.981L699.839 928.983L699.844 1031.17Z" fill="#FFB8B8"/>
<path d="M689.801 1069.36L816.777 1069.35V1067.74C816.777 1061.25 815.499 1054.82 813.015 1048.82C810.532 1042.82 806.891 1037.37 802.302 1032.78C797.713 1028.19 792.265 1024.55 786.269 1022.06C780.273 1019.58 773.846 1018.3 767.356 1018.3H767.351L689.798 1018.3L689.801 1069.36Z" fill="#2F2E41"/>
<path d="M755.531 977.441L834.038 801.311C840.593 786.466 841.317 769.695 836.068 754.34C830.818 738.984 819.98 726.17 805.712 718.45L635.427 627.094L557.722 620.482L501.581 615.61L501.589 614.839C500.928 615.957 485.517 642.588 495.934 671.79C503.836 693.94 508.329 711.242 540.964 723.214C617.137 751.158 705.132 775.04 739.428 784.01C740.944 784.397 742.361 785.102 743.585 786.076C744.809 787.051 745.813 788.274 746.531 789.665C747.251 791.039 747.678 792.548 747.787 794.096C747.895 795.644 747.682 797.198 747.161 798.659L674.226 962.601C673.464 964.68 673.19 966.906 673.424 969.108C673.658 971.31 674.395 973.429 675.577 975.301C676.759 977.174 678.356 978.749 680.243 979.906C682.13 981.064 684.258 981.772 686.461 981.976L740.96 985.946C741.423 985.99 741.883 986.012 742.342 986.012C745.133 986.011 747.864 985.201 750.205 983.68C752.545 982.159 754.395 979.992 755.531 977.441V977.441Z" fill="#2F2E41"/>
<path d="M706.285 218.801C716.366 176.392 690.175 133.837 647.786 123.751C605.397 113.666 562.862 139.869 552.781 182.278C542.7 224.687 568.891 267.242 611.28 277.328C653.669 287.413 696.205 261.21 706.285 218.801Z" fill="#FFB8B8"/>
<path d="M901.476 503.792C934.466 459.89 960.545 411.195 978.809 359.399C979.867 356.301 979.792 352.927 978.597 349.879C977.402 346.831 975.164 344.307 972.283 342.754L859.392 282.237C857.566 281.25 855.539 280.694 853.465 280.61C851.391 280.525 849.326 280.916 847.425 281.751C845.49 282.592 843.772 283.864 842.402 285.471C841.032 287.077 840.046 288.974 839.52 291.019C826.38 340.931 801.681 387.049 767.422 425.64C766.011 427.21 764.978 429.082 764.4 431.113C763.822 433.144 763.715 435.28 764.087 437.358C764.444 439.404 765.263 441.34 766.482 443.021C767.701 444.702 769.287 446.082 771.119 447.057L884.01 507.575C886.898 509.116 890.238 509.581 893.436 508.888C896.635 508.195 899.484 506.39 901.476 503.792Z" fill="#CCCCCC"/>
<path d="M893.773 498.001C893.165 498.759 892.313 499.282 891.361 499.478C890.41 499.675 889.42 499.533 888.563 499.078L775.671 438.559C775.123 438.273 774.649 437.864 774.285 437.364C773.921 436.863 773.678 436.286 773.575 435.676C773.457 435.032 773.49 434.37 773.672 433.741C773.853 433.112 774.177 432.534 774.619 432.051C809.888 392.324 835.315 344.847 848.841 293.464C848.998 292.829 849.299 292.239 849.721 291.74C850.144 291.241 850.676 290.847 851.276 290.588C851.841 290.335 852.458 290.217 853.077 290.242C853.696 290.268 854.3 290.437 854.843 290.735L967.731 351.253C968.586 351.715 969.253 352.461 969.617 353.363C969.98 354.265 970.017 355.266 969.721 356.192C951.785 407.062 926.172 454.885 893.773 498.001Z" fill="white"/>
<path d="M854.277 348.233L932.141 393.893C939.888 398.436 946.904 386.4 939.169 381.864L861.305 336.204C853.558 331.661 846.543 343.697 854.277 348.233V348.233Z" fill="#CCCCCC"/>
<path d="M840.353 373.772L918.217 419.432C925.964 423.975 932.98 411.939 925.245 407.404L847.381 361.743C839.634 357.2 832.618 369.236 840.353 373.772V373.772Z" fill="#CCCCCC"/>
<path d="M829.413 399.212L900.227 441.27C907.272 445.455 914.808 436.803 907.773 432.625L836.96 390.567C829.914 386.383 822.379 395.034 829.413 399.212Z" fill="#CCCCCC"/>
<path d="M807.864 424.851L885.728 470.511C893.475 475.054 900.49 463.018 892.755 458.483L814.891 412.822C807.144 408.279 800.129 420.315 807.864 424.851V424.851Z" fill="#CCCCCC"/>
<path d="M675.022 623.847L518.9 622.913L518.858 621.802C515.881 543.433 525.454 472.442 548.125 404.775C548.446 402.243 548.792 399.535 549.132 396.878C553.005 366.604 556.079 342.568 584.854 333.616C582.456 330.427 581.043 326.607 580.788 322.624C580.607 319.978 580.954 317.322 581.808 314.81C582.663 312.299 584.008 309.983 585.766 307.998C587.448 306.08 589.495 304.516 591.787 303.397C594.079 302.278 596.57 301.627 599.116 301.481L654.686 299.588C657.606 299.568 660.448 300.532 662.754 302.325C666.984 305.469 669.958 310.017 671.142 315.155C672.325 320.293 671.642 325.685 669.214 330.365C668.559 331.669 668.309 332.263 668.213 332.521C670.189 342.876 676.051 355.177 682.253 368.194C691.134 386.831 701.201 407.954 703.789 430.553C705.187 442.754 704.606 455.102 702.069 467.118C700.91 473.594 700.644 480.197 701.276 486.745C701.784 496.453 702.262 505.62 696.777 514.486C695.379 516.889 693.779 519.451 691.902 522.29L684.186 540.744L675.022 623.847Z" fill="#155939"/>
<path d="M440.736 733.519V414.364C440.747 403.965 444.882 393.994 452.232 386.64C459.583 379.286 469.549 375.15 479.944 375.138H490.788C501.183 375.15 511.149 379.286 518.499 386.64C525.85 393.994 529.984 403.965 529.996 414.364V733.519C529.984 743.919 525.85 753.89 518.499 761.243C511.149 768.597 501.183 772.734 490.788 772.745H479.944C469.549 772.734 459.583 768.597 452.232 761.243C444.882 753.89 440.747 743.919 440.736 733.519V733.519Z" fill="#3F3D56"/>
<path d="M859.396 446.219C858.276 447.622 857.267 449.112 856.381 450.674L695.887 462.398L673.876 430.075L620.776 456.935L654.185 517.945C656.884 522.874 661.108 526.793 666.224 529.116C671.339 531.438 677.069 532.038 682.554 530.825L861.315 491.288C866.11 496.276 872.309 499.685 879.087 501.062C885.866 502.439 892.903 501.718 899.262 498.997C905.621 496.275 911.002 491.681 914.688 485.825C918.373 479.969 920.19 473.13 919.895 466.216C919.601 459.302 917.21 452.642 913.04 447.121C908.869 441.6 903.118 437.48 896.55 435.309C889.983 433.138 882.91 433.019 876.273 434.968C869.636 436.917 863.75 440.841 859.396 446.219V446.219Z" fill="#FFB6B6"/>
<path d="M690.487 463.117L624.878 496.809C623.011 497.767 620.96 498.312 618.864 498.406C616.768 498.5 614.676 498.141 612.731 497.353C610.786 496.565 609.034 495.367 607.593 493.841C606.153 492.314 605.058 490.495 604.383 488.507L580.757 418.851C575.913 409.288 575.051 398.196 578.359 387.999C581.668 377.802 588.878 369.331 598.413 364.439C569.33 379.374 629.901 336.95 653.019 382.01L695.692 441.617C696.913 443.324 697.753 445.275 698.153 447.336C698.553 449.396 698.504 451.519 698.01 453.559C697.516 455.6 696.588 457.51 695.29 459.159C693.992 460.808 692.353 462.158 690.487 463.117H690.487Z" fill="#155939"/>
<path d="M593.894 277.309C589.146 277.309 583.906 275.019 577.999 270.38C560.616 256.724 548.192 237.741 542.631 216.341C537.07 194.941 538.68 172.307 547.214 151.91C551.509 141.646 559.542 127.695 573.42 119.519C583.397 113.644 595.116 111.522 605.317 109.994C614.149 108.67 623.092 107.615 631.896 106.865C642.417 105.965 654.569 105.357 665.653 109.57C673.774 112.658 680.686 118.111 687.371 123.385C689.7 125.221 692.11 127.124 694.523 128.883C700.37 133.446 707.113 136.723 714.313 138.499C715.832 138.814 717.266 139.452 718.518 140.369C719.77 141.286 720.81 142.462 721.568 143.816C722.342 145.192 722.812 146.719 722.946 148.292C723.079 149.866 722.874 151.45 722.343 152.937C721.3 155.862 720.359 158.499 722.263 161.356C722.969 162.363 723.91 163.181 725.005 163.739C726.1 164.297 727.314 164.578 728.543 164.558C729.191 164.547 729.832 164.699 730.407 164.999C730.982 165.299 731.473 165.738 731.835 166.276C732.202 166.81 732.434 167.425 732.509 168.068C732.584 168.712 732.5 169.364 732.265 169.968L731.96 170.754C732.777 170.831 733.563 171.104 734.25 171.552C734.938 171.999 735.506 172.607 735.907 173.323C736.502 174.343 736.733 175.535 736.559 176.704C736.386 177.872 735.819 178.946 734.953 179.749C727.913 186.453 719.135 191.049 709.617 193.015C703.103 194.294 696.401 194.278 689.893 192.97L688.846 192.766L688.975 191.605C662.649 182.211 638.885 198.153 625.338 216.378L623.381 215.142C623.717 214.463 623.912 213.723 623.955 212.966C623.998 212.209 623.887 211.452 623.63 210.739C623.357 209.884 622.918 209.091 622.339 208.405C621.759 207.72 621.05 207.155 620.252 206.744C618.639 206.078 616.864 205.905 615.153 206.247C613.441 206.589 611.869 207.43 610.635 208.664C609.378 209.983 608.409 211.548 607.789 213.261C607.17 214.975 606.915 216.798 607.039 218.616C607.394 222.468 608.375 226.237 609.943 229.774C610.58 231.465 611.239 233.215 611.774 234.979C614.772 245.001 613.973 255.776 609.529 265.244C607.478 269.563 603.77 275.071 597.75 276.778C596.495 277.133 595.198 277.311 593.894 277.309V277.309Z" fill="#2F2E41"/>
<path d="M1876.24 1074H2.7632C2.03175 1074 1.33098 1073.71 0.814512 1073.19C0.29804 1072.67 0.00799561 1071.97 0.00799561 1071.24C0.00799561 1070.5 0.29804 1069.8 0.814512 1069.28C1.33098 1068.77 2.03175 1068.47 2.7632 1068.47H1876.24C1876.97 1068.47 1877.67 1068.76 1878.19 1069.28C1878.71 1069.8 1879 1070.5 1879 1071.24C1879 1071.97 1878.71 1072.67 1878.19 1073.19C1877.67 1073.71 1876.97 1074 1876.24 1074V1074Z" fill="#CACACA"/>
</g>
<defs>
<clipPath id="clip0_525_1516">
<rect width="1879" height="1074" fill="white"/>
</clipPath>
</defs>
</svg>
