<svg width="10000" height="5629" viewBox="0 0 10000 5629" fill="none" xmlns="http://www.w3.org/2000/svg">
<path d="M5916.67 4049.32L6027.78 2305.55L9000 1888.89V2472.22L7277.78 2500V3166.67H9222.22V4049.32H5916.67Z" fill="#01532B"/>
<path d="M6055.56 1611.11L6111.11 0H9416.66L9388.89 888.889H7394.98L7361.11 1500L6055.56 1611.11Z" fill="black"/>
<path d="M5250 2388.89L5166.67 4055.55H3722.22L2916.67 2666.67L2166.67 2722.23L2138.89 4055.55H972.222L1055.56 2777.78L2166.67 2722.23L2916.67 2666.67L4000 2555.56L4138.89 2666.67V2527.78L5250 2388.89Z" fill="#01532B"/>
<path d="M5361.11 27.7783L5250 1722.22L4138.89 1833.33L4194.44 27.7783H5361.11L5250 1722.22L4138.89 1833.33L4194.44 27.7783H5361.11Z" fill="black"/>
<path d="M3722.22 1916.67L2527.78 2027.78L2222.22 1472.22L2194.44 2083.33L1083.33 2194.44L1138.89 0H2694.44L3722.22 1916.67Z" fill="#040404"/>
<path d="M10000 1694.44C8861.11 2083.33 2416.67 2972.22 0 2805.56L5027.78 2361.11L10000 1694.44Z" fill="#0A784E"/>
<path d="M1945.56 4378.47L1890 5517.36H1445.56L1052.25 4795.14V5517.36H723.333V4378.47H1223.33L1576.87 5163.82H1588.23L1612.22 4378.47H1945.56Z" fill="black"/>
<path fill-rule="evenodd" clip-rule="evenodd" d="M2667.78 5533.34C3005.29 5533.34 3278.89 5272.17 3278.89 4950C3278.89 4627.84 3005.29 4366.67 2667.78 4366.67C2330.27 4366.67 2056.67 4627.84 2056.67 4950C2056.67 5272.17 2330.27 5533.34 2667.78 5533.34ZM2667.78 5255.56C2821.19 5255.56 2945.56 5118.76 2945.56 4950C2945.56 4781.25 2821.19 4644.45 2667.78 4644.45C2514.37 4644.45 2390 4781.25 2390 4950C2390 5118.76 2514.37 5255.56 2667.78 5255.56Z" fill="black"/>
<path d="M3298 4348.53L3659.11 4348.53L3964.67 5487.44L3659.11 5487.44L3298 4348.53Z" fill="black"/>
<path d="M4640 4350.69L4278.89 4350.69L3778.88 5489.55L4112.22 5489.54L4640 4350.69Z" fill="black"/>
<path d="M5797.99 5468.41L5436.88 5468.41L5131.32 4329.51L5436.87 4329.51L5797.99 5468.41Z" fill="black"/>
<path d="M4455.99 5477.97L4817.1 5477.97L5317.11 4339.11L4983.76 4339.12L4455.99 5477.97Z" fill="black"/>
<rect x="4890" y="4922.23" width="555.556" height="277.778" fill="black"/>
<rect x="6193.33" y="4319.97" width="888.889" height="222.222" fill="#005529"/>
<rect x="6193.33" y="5208.86" width="888.889" height="333.333" transform="rotate(-90 6193.33 5208.86)" fill="#005529"/>
<rect x="6193.33" y="4764.41" width="777.778" height="222.222" fill="#005529"/>
<rect x="6193.33" y="5208.86" width="833.333" height="222.222" fill="#005529"/>
<path d="M7776.67 4931.09C8068.15 4931.09 8221.11 4794.28 8221.11 4625.52C8221.11 4456.77 8068.74 4319.92 7804.44 4319.97L7526.67 4319.98V4542.21L7748.89 4542.19C7840.94 4542.19 7915.56 4604.37 7915.56 4681.08C7915.56 4757.79 7840.94 4819.98 7748.89 4819.98H7582.22L7637.78 4931.08C7664.92 4933.57 7748.31 4931.09 7776.67 4931.09Z" fill="#04522B"/>
<rect x="7193.33" y="5431.11" width="1111.11" height="333.333" transform="rotate(-90 7193.33 5431.11)" fill="#005529"/>
<rect x="7304.44" y="4319.99" width="555.556" height="166.667" fill="#005529"/>
<path d="M7893.95 4819.98L8110.01 5431.07L7804.44 5431.08L7588.39 4819.98L7893.95 4819.98Z" fill="#005529"/>
<path d="M9540.15 5439.99L9178.75 5439.12L8870.2 4291.32L9176 4292.05L9540.15 5439.99Z" fill="#005529"/>
<path d="M8203.76 5431.3L8564.87 5431.3L9064.88 4292.43L8731.54 4292.45L8203.76 5431.3Z" fill="#005529"/>
<rect x="8637.78" y="4875.55" width="555.556" height="277.778" fill="#005529"/>
</svg>
