<svg width="320" height="177" viewBox="0 0 320 177" fill="none" xmlns="http://www.w3.org/2000/svg">
<path d="M189.333 129.578L192.889 73.7777L288 60.4443V79.111L232.889 79.9999V101.333H295.111V129.578H189.333Z" fill="#01532B"/>
<path d="M193.778 51.5556L195.556 0H301.333L300.444 28.4444H236.64L235.556 48L193.778 51.5556Z" fill="black"/>
<path d="M168 76.4443L165.334 129.778H119.111L93.3336 85.3332L69.3336 87.1111L68.4447 129.778H31.1113L33.778 88.8888L69.3336 87.1111L93.3336 85.3332L128 81.7777L132.445 85.3332V80.8888L168 76.4443Z" fill="#01532B"/>
<path d="M171.556 0.888672L168 55.1109L132.445 58.6665L134.223 0.888672H171.556L168 55.1109L132.445 58.6665L134.223 0.888672H171.556Z" fill="black"/>
<path d="M119.111 61.3333L80.8892 64.8889L71.1114 47.1111L70.2225 66.6667L34.667 70.2222L36.4448 0H86.2225L119.111 61.3333Z" fill="#040404"/>
<path d="M320 54.2222C283.556 66.6666 77.3333 95.1111 0 89.7777L160.889 75.5555L320 54.2222Z" fill="#0A784E"/>
<path fill-rule="evenodd" clip-rule="evenodd" d="M143.8 173.76L159.265 138.144H174.224L184.802 173.76H173.427L171.778 166.4H157.884L155.173 173.76H143.8ZM169.46 157.511H161.678L166.508 146.193L169.46 157.511Z" fill="black"/>
<path d="M142.592 176.543L142.591 176.544H142.592V176.543Z" fill="black"/>
<path d="M119.312 173.792L105.587 138.144H117.135L125.152 163.328L136.883 138.144H148.437L129.792 173.792H119.312Z" fill="black"/>
<path fill-rule="evenodd" clip-rule="evenodd" d="M85.3758 173.92C95.7145 173.92 104.096 166.456 104.096 156.406C104.096 146.355 95.7145 138.208 85.3758 138.208C75.037 138.208 66.6558 146.355 66.6558 156.406C66.6558 166.456 75.037 173.92 85.3758 173.92ZM85.3758 165.706C90.0752 165.706 93.8849 161.67 93.8849 156.406C93.8849 151.141 90.0752 146.874 85.3758 146.874C80.6763 146.874 76.8667 151.141 76.8667 156.406C76.8667 161.67 80.6763 165.706 85.3758 165.706Z" fill="black"/>
<path d="M44.7527 173.792H60.6079L62.2576 138.208H51.5909L50.8233 165.242H50.4596L39.1465 138.208H23.1465V173.792H33.6717V153.444L44.7527 173.792Z" fill="black"/>
<path d="M198.187 138.239H226.631V145.35H198.187V138.239Z" fill="#005529"/>
<path d="M198.187 166.683L198.187 138.239L208.853 138.239V166.683H198.187Z" fill="#005529"/>
<path d="M198.187 152.461H223.075V159.572H198.187V152.461Z" fill="#005529"/>
<path d="M198.187 166.683H224.853V173.794H198.187V166.683Z" fill="#005529"/>
<path d="M248.853 157.795C258.181 157.795 263.075 153.417 263.075 148.017C263.075 142.616 258.199 138.237 249.742 138.239L240.853 138.239V145.35L247.964 145.35C250.91 145.35 253.297 147.34 253.297 149.794C253.297 152.249 250.91 154.239 247.964 154.239H242.631L244.409 157.794C245.277 157.874 247.946 157.795 248.853 157.795Z" fill="#04522B"/>
<rect x="230.187" y="173.795" width="35.5556" height="10.6667" transform="rotate(-90 230.187 173.795)" fill="#005529"/>
<path d="M252.606 154.239L259.52 173.794L249.742 173.794L242.828 154.239L252.606 154.239Z" fill="#005529"/>
<rect x="233.742" y="138.24" width="17.7778" height="5.33333" fill="#005529"/>
<path d="M305.284 174.08L293.72 174.052L283.846 137.322L293.632 137.346L305.284 174.08Z" fill="#005529"/>
<path d="M262.52 173.801L274.076 173.801L290.076 137.358L279.409 137.358L262.52 173.801Z" fill="#005529"/>
<rect x="276.409" y="156.018" width="17.7778" height="8.88889" fill="#005529"/>
</svg>
